<?xml version="1.0" encoding="UTF-8"?>
<svg xmlns="http://www.w3.org/2000/svg" xmlns:xlink="http://www.w3.org/1999/xlink" width="81px" height="50px" viewBox="0 0 81 50" version="1.1">
  <title>aexpress</title>
  <desc>Created with Sketch.</desc>
  <g id="Pricing-tiles" stroke="none" stroke-width="1" fill="none" fill-rule="evenodd">
    <g id="TEST_-Pricing-page-(Desktop-HD)" transform="translate(-921.000000, -3856.000000)">
      <g id="Group-4" transform="translate(0.000000, 3560.000000)">
        <g id="Group">
          <g id="aexpress" transform="translate(920.000000, 296.000000)">
            <path d="M82,47 C82,48.6087853 80.5794683,50 79,50 L4,50 C2.41942718,50 1,48.6089481 1,47 L1,3 C1,1.39105195 2.41942718,5.55111512e-17 4,5.55111512e-17 L79,5.55111512e-17 C80.5794683,5.55111512e-17 82,1.39121469 82,3 L82,47 Z" id="Fill-175" fill="#FFFFFF" fill-rule="nonzero"></path>
            <polygon id="Fill-178" fill="#747678" points="44.9242597 22.0062573 46.7818751 22.0062573 46.7818751 14.6220911 44.9242597 14.6220911"></polygon>
            <path d="M12.3512349,18.7684443 L13.4588453,16.1902056 L14.6128478,18.7684443 L12.3512349,18.7684443 Z M24.0020852,22.0063201 L26.5426948,16.6224249 L26.5426948,22.0063201 L28.4003102,22.0063201 L28.4003102,14.6309491 L25.4370174,14.6309491 L23.1573631,19.5782273 L20.8860852,14.6309491 L17.9743391,14.6309491 L17.9743391,21.7342983 L14.7320496,14.6309491 L12.2745591,14.6309491 L8.96461456,22.0063201 L10.9240347,22.0063201 L11.6489107,20.3597402 L15.3564094,20.3597402 L16.0915947,22.0063201 L19.8300215,22.0063201 L19.8300215,16.5313322 L22.3132854,22.0063201 L24.0020852,22.0063201 Z" id="Fill-180" fill="#747678"></path>
            <path d="M50.6487821,22.0102779 C48.5888458,22.0102779 47.6764687,20.3266327 47.7189947,18.2848989 C47.7808508,15.255594 49.6178475,14.6273682 50.4625696,14.6273682 L52.8878433,14.6273682 L52.8878433,16.2299723 L51.7409285,16.2299723 C50.5063843,16.2299723 49.543749,16.3562456 49.543749,18.0851231 L49.543749,18.6197432 C49.5527697,19.9207989 50.2525166,20.2286295 50.6990402,20.3184658 C50.808577,20.3442231 51.8897697,20.3442231 51.8897697,20.3442231 L54.4484207,14.6311376 L56.9059112,14.6311376 L60.0695919,21.5535577 L60.0695919,14.6273682 L62.8144554,14.6273682 L65.9465638,19.7342158 L65.9465638,14.6273682 L67.8041792,14.6273682 L67.8041792,22.0102779 L65.2706572,22.0102779 L61.9284959,16.6087924 L61.9284959,22.0102779 L58.2635232,22.0102779 L57.5289823,20.3636981 L53.8227722,20.3636981 L53.0978963,22.0102779 L50.6487821,22.0102779 Z M55.6449492,16.1941634 L54.5386275,18.7724021 L56.8105497,18.7724021 L55.6449492,16.1941634 Z" id="Combined-Shape" fill="#747678"></path>
            <path d="M69.9964617,30.2286651 L69.991307,30.2286651 C69.8379555,30.2286651 68.8456809,30.178407 68.6949067,30.178407 C68.2561151,30.1369441 67.9101077,30.0458514 67.9101077,29.5929006 C67.9101077,28.9860344 68.4152657,28.9527385 68.9648827,28.9527385 L69.169781,28.9527385 L69.2599878,28.9527385 L72.1143881,28.9527385 L72.1143881,27.3721223 L68.2142334,27.3721223 C66.9977305,27.3721223 66.0009456,28.127878 66.0009456,29.510603 C66.0009456,30.7281046 66.4816189,31.7282401 68.5428438,31.781011 C68.680087,31.783524 69.5821548,31.8325256 69.8263575,31.8664498 C70.3753302,31.9229901 70.509996,32.1378433 70.509996,32.4739441 C70.509996,33.1819546 69.7419497,33.1819546 69.2264824,33.1819546 L66.1871581,33.1819546 L66.1871581,34.7638272 L70.0879572,34.7638272 C71.3038157,34.7638272 72.4694162,34.0212643 72.4694162,32.6397957 C72.4694162,31.4543336 72.278049,30.3430022 69.9964617,30.2286651" id="Fill-182" fill="#747678"></path>
            <path d="M38.7500565,16.2125076 L41.0715925,16.2125076 C41.8473708,16.2125076 42.0935065,16.6981261 42.0935065,17.0606124 C42.0935065,17.5550261 41.8228861,17.8835882 41.0632161,17.8835882 L38.7500565,17.8835882 L38.7500565,16.2125076 Z M36.8924411,22.0066342 L38.7500565,22.0066342 L38.7500565,19.4051511 L41.1811293,19.4051511 C41.8228861,19.4051511 42.0773981,20.0296076 42.0935065,20.6553205 L42.1444089,22.0066342 L43.9511218,22.0066342 L43.8847554,20.4913535 C43.8847554,19.3058915 43.5458356,18.7461423 42.6676082,18.6468826 C43.6817902,18.1549818 43.9511218,17.4947165 43.9511218,16.6051487 C43.9511218,15.0245326 42.6334585,14.6312632 41.72237,14.6312632 L36.8924411,14.6312632 L36.8924411,22.0066342 Z" id="Fill-183" fill="#747678"></path>
            <polygon id="Fill-184" fill="#747678" points="35.7901142 20.4579948 31.5781018 20.4579948 31.5781018 19.0017673 35.6715567 19.0017673 35.6715567 17.6027085 31.5781018 17.6027085 31.5781018 16.218727 35.7901142 16.218727 35.7901142 14.6312004 29.7204864 14.6312004 29.7204864 22.0065714 35.7901142 22.0065714"></polygon>
            <path d="M46.037798,30.6249499 L46.037798,28.9538693 L48.3586897,28.9538693 C49.1351123,28.9538693 49.3799593,29.4394878 49.3799593,29.8019741 C49.3799593,30.2951314 49.111272,30.6249499 48.3509577,30.6249499 L46.037798,30.6249499 Z M49.3799593,33.3966822 L49.429573,34.7473677 L51.2375747,34.7473677 L51.1699196,33.232087 C51.1699196,32.0459967 50.8335772,31.4862475 49.954061,31.3882443 C50.968243,30.895087 51.2375747,30.2360781 51.2375747,29.3465104 C51.2375747,27.7671507 49.9212,27.3719967 49.0088228,27.3719967 L44.1801826,27.3719967 L44.1801826,34.7473677 L46.037798,34.7473677 L46.037798,32.1452564 L48.4688708,32.1452564 C49.111272,32.1452564 49.363851,32.7709693 49.3799593,33.3966822 L49.3799593,33.3966822 Z" id="Fill-185" fill="#747678"></path>
            <polygon id="Fill-186" fill="#747678" points="52.1941532 34.7305312 58.2663583 34.7305312 58.2663583 33.1819546 54.0530572 33.1819546 54.0530572 31.7257272 58.1478008 31.7257272 58.1478008 30.3266683 54.0530572 30.3266683 54.0530572 28.9426869 58.2663583 28.9426869 58.2663583 27.3551602 52.1941532 27.3551602"></polygon>
            <path d="M40.3570903,30.7243352 L38.0439307,30.7243352 L38.0439307,28.9539949 L40.3648223,28.9539949 C41.1425337,28.9539949 41.388025,29.4396135 41.388025,29.8014715 C41.388025,30.2958852 41.1174046,30.7243352 40.3570903,30.7243352 L40.3570903,30.7243352 Z M36.1702069,34.0382264 L33.5020192,30.9599199 L36.1702069,28.0788764 L36.1702069,34.0382264 Z M29.0709332,33.1819546 L24.7886883,33.1819546 L24.7886883,31.7257272 L28.8847206,31.7257272 L28.8847206,30.3266683 L24.7886883,30.3266683 L24.7886883,28.9426869 L29.3054708,28.9527385 L31.1134725,30.9599199 L29.0709332,33.1819546 Z M40.9827388,27.3708659 L34.4646544,27.3708659 L32.337063,29.6594925 L30.2777711,27.3551602 L22.9574907,27.3551602 L22.9574907,34.7305312 L30.0400117,34.7305312 L32.2700523,32.2936433 L34.4472574,34.7474933 L38.0110696,34.7474933 L38.0110696,32.2433852 L40.5091532,32.2433852 C41.4717884,32.2433852 43.2288877,32.2113457 43.2288877,29.6261965 C43.2288877,27.7823538 41.895116,27.3708659 40.9827388,27.3708659 L40.9827388,27.3708659 Z" id="Fill-187" fill="#747678"></path>
            <path d="M65.4772952,32.6396701 C65.4772952,31.454208 65.285928,30.3428765 63.003052,30.2285394 L62.9978974,30.2285394 C62.8458345,30.2285394 61.8535599,30.1782814 61.7047187,30.1782814 C61.2652828,30.1368185 60.9179867,30.0457257 60.9179867,29.5927749 C60.9179867,28.9859088 61.4231447,28.9526128 61.9740504,28.9526128 L62.1789486,28.9526128 L62.2691554,28.9526128 L65.1222671,28.9526128 L65.1222671,27.3719967 L61.2221124,27.3719967 C60.0068982,27.3719967 59.0114019,28.1277523 59.0114019,29.5111056 C59.0114019,30.727979 59.4882092,31.7281144 61.5520115,31.7808854 C61.6866773,31.7833983 62.5906782,31.8323999 62.8342365,31.8669523 C63.3832092,31.9228644 63.5191637,32.1377177 63.5191637,32.4738185 C63.5191637,33.181829 62.750473,33.181829 62.23565,33.181829 L59.1963258,33.181829 L59.1963258,34.7637015 L63.0964805,34.7637015 C64.3129834,34.7637015 65.4772952,34.0211386 65.4772952,32.6396701" id="Fill-188" fill="#747678"></path>
          </g>
        </g>
      </g>
    </g>
  </g>
</svg>
