<?xml version="1.0" encoding="UTF-8"?>
<svg xmlns="http://www.w3.org/2000/svg" width="720" height="486" viewBox="0 0 720 486" fill="none">
  <g clip-path="url(#clip0_4540_24126)">
    <rect width="720" height="486" fill="#AEEAB4"></rect>
    <g clip-path="url(#clip1_4540_24126)">
      <rect x="45.7227" y="58" width="627.444" height="490.983" rx="19.731" fill="white"></rect>
      <ellipse cx="596.778" cy="113.186" rx="4.14515" ry="4.1435" fill="#51516C"></ellipse>
      <ellipse cx="613.348" cy="113.186" rx="4.14515" ry="4.1435" fill="#51516C"></ellipse>
      <ellipse cx="629.922" cy="113.186" rx="4.14515" ry="4.1435" fill="#51516C"></ellipse>
      <path d="M61.6836 175.133H656.147V580.249H61.6836V175.133Z" fill="#F6F7F8"></path>
      <rect x="227.125" y="235.906" width="73.2018" height="8.80687" rx="4.40343" fill="#7D7D91"></rect>
      <path d="M126.301 267.935C126.301 265.503 128.272 263.531 130.704 263.531H398.131C400.563 263.531 402.534 265.503 402.534 267.935C402.534 270.367 400.563 272.338 398.131 272.338H130.704C128.272 272.338 126.301 270.367 126.301 267.935Z" fill="#D0D7D3"></path>
      <rect x="142.875" y="285.633" width="243.085" height="8.80687" rx="4.40343" fill="#D0D7D3"></rect>
      <g clip-path="url(#clip2_4540_24126)">
        <rect width="195.342" height="296.268" transform="translate(433.773 155.316)" fill="#3DBC62"></rect>
        <path d="M436.138 503.686L502.069 310.107C503.305 306.476 505.036 304.416 506.848 304.416H558.304C560.117 304.416 561.849 302.356 563.084 298.725L629.111 104.863V503.686H436.137H436.138Z" fill="#014722"></path>
      </g>
      <ellipse cx="217.457" cy="376.918" rx="16.574" ry="16.574" fill="#A2B3AC"></ellipse>
      <ellipse cx="264.418" cy="376.918" rx="16.574" ry="16.574" fill="#527669"></ellipse>
      <ellipse cx="311.379" cy="376.918" rx="16.574" ry="16.574" fill="#85DA95"></ellipse>
    </g>
    <path d="M93.1034 130.796C92.8786 131.021 92.7297 131.31 92.6774 131.624L91.2395 140.251C91.1585 140.737 91.3172 141.232 91.6655 141.58C92.0138 141.929 92.5088 142.087 92.9946 142.006L101.622 140.568C101.936 140.516 102.225 140.367 102.45 140.142L128.332 114.26C130.516 112.076 130.516 108.535 128.332 106.351L126.894 104.913C124.711 102.729 121.17 102.729 118.986 104.913L93.1034 130.796ZM94.5993 138.646L95.6059 132.607L116.47 111.743L121.502 116.776L100.639 137.64L94.5993 138.646ZM123.659 114.619L118.626 109.587L121.143 107.07C122.135 106.078 123.745 106.078 124.738 107.07L126.176 108.508C127.168 109.501 127.168 111.11 126.176 112.103L123.659 114.619Z" fill="#51516C"></path>
  </g>
  <defs>
    <clipPath id="clip0_4540_24126">
      <rect width="720" height="486" fill="white"></rect>
    </clipPath>
    <clipPath id="clip1_4540_24126">
      <rect x="45.7227" y="58" width="627.444" height="490.983" rx="19.731" fill="white"></rect>
    </clipPath>
    <clipPath id="clip2_4540_24126">
      <rect width="195.342" height="296.268" fill="white" transform="translate(433.773 155.316)"></rect>
    </clipPath>
  </defs>
</svg>
