<?xml version="1.0" encoding="UTF-8"?>
<svg xmlns="http://www.w3.org/2000/svg" xmlns:xlink="http://www.w3.org/1999/xlink" width="81px" height="50px" viewBox="0 0 81 50" version="1.1">
  <title>discover</title>
  <desc>Created with Sketch.</desc>
  <defs>
    <radialGradient cx="50%" cy="51.8015418%" fx="50%" fy="51.8015418%" r="59.7733725%" id="radialGradient-1">
      <stop stop-color="#B1B2B3" stop-opacity="0" offset="0%"></stop>
      <stop stop-color="#747678" offset="100%"></stop>
    </radialGradient>
  </defs>
  <g id="Pricing-tiles" stroke="none" stroke-width="1" fill="none" fill-rule="evenodd">
    <g id="TEST_-Pricing-page-(Desktop-HD)" transform="translate(-1164.000000, -3856.000000)">
      <g id="Group-4" transform="translate(0.000000, 3560.000000)">
        <g id="Group">
          <g id="discover" transform="translate(1164.000000, 296.000000)">
            <path d="M81,47 C81,48.6077326 79.5792736,50 78,50 L3,50 C1.41962166,50 0,48.6078955 0,47 L0,3 C0,1.39124843 1.41921744,0 3,0 L78,0 C79.5796782,0 81,1.39141127 81,3 L81,47 Z" id="Fill-198" fill="#FFFFFF" fill-rule="nonzero"></path>
            <path d="M22,50 L78,50 C79.7849831,50 81,48.827106 81,47 L81,29 C75.5976185,32.3057701 55.2297061,43.7034442 22,50" id="Fill-199" fill="#747678"></path>
            <path d="M21.4211403,26.6787343 C21.9308086,26.2327735 22.23429,25.5145285 22.23429,24.7962835 C22.23429,24.0805832 21.9308086,23.3871491 21.4211403,22.9386436 C20.9314463,22.5022255 20.3554116,22.3349107 19.399864,22.3349107 L19.0035985,22.3349107 L19.0035985,27.2729245 L19.399864,27.2729245 C20.3554116,27.2729245 20.953998,27.0935223 21.4211403,26.6787343 Z M19.6956134,21.0701887 C22.0880261,21.0701887 23.7555629,22.6033778 23.7555629,24.8077347 C23.7555629,25.905778 23.244606,26.9694676 22.3837755,27.6762614 C21.6576109,28.2691793 20.8296415,28.5376465 19.6859484,28.5376465 L17.5287176,28.5376465 L17.5287176,21.0701887 L19.6956134,21.0701887 Z" id="Fill-396" fill="#747678"></path>
            <polygon id="Fill-398" fill="#747678" points="24.4363664 28.5377101 25.90867 28.5377101 25.90867 21.0702523 24.4363664 21.0702523"></polygon>
            <path d="M29.5168124,23.9339441 C28.6308529,23.6107657 28.3718306,23.3970099 28.3718306,22.9943092 C28.3718306,22.5248098 28.8357512,22.1672777 29.471709,22.1672777 C29.9130779,22.1672777 30.275838,22.3460438 30.6630829,22.7697383 L31.4337065,21.7760283 C30.7977487,21.2250981 30.0380787,20.9458159 29.209465,20.9458159 C27.873116,20.9458159 26.851202,21.8638208 26.851202,23.0840103 C26.851202,24.1152549 27.3273649,24.6407379 28.7113947,25.1331397 C29.2900068,25.334172 29.5844675,25.4684056 29.73202,25.559379 C30.0264807,25.7502324 30.1746776,26.0174272 30.1746776,26.331063 C30.1746776,26.9373406 29.6882053,27.3833014 29.0284071,27.3833014 C28.3247942,27.3833014 27.7584245,27.0378568 27.4188604,26.388319 L26.4678232,27.296145 C27.1456627,28.2803125 27.9626784,28.7180029 29.0863972,28.7180029 C30.6166908,28.7180029 31.6940175,27.7090246 31.6940175,26.2649004 C31.6940175,25.0784284 31.1965916,24.5402218 29.5168124,23.9339441" id="Fill-400" fill="#747678"></path>
            <path d="M32.1583247,24.8074802 C32.1583247,27.0042029 33.9051146,28.705343 36.1512635,28.705343 C36.7872213,28.705343 37.330395,28.5825606 37.9998582,28.2689249 L37.9998582,26.5556974 C37.4096481,27.1384365 36.8877375,27.3719138 36.2195629,27.3719138 C34.7343727,27.3719138 33.678309,26.3082242 33.678309,24.796029 C33.678309,23.3646284 34.7659451,22.2328677 36.1512635,22.2328677 C36.8535878,22.2328677 37.3870964,22.480341 37.9998582,23.0726227 L37.9998582,21.3593953 C37.3542354,21.0349445 36.819438,20.9019833 36.1854132,20.9019833 C33.950218,20.9019833 32.1583247,22.6381131 32.1583247,24.8074802" id="Fill-401" fill="#747678"></path>
            <polygon id="Fill-402" fill="#747678" points="49.9518059 26.0860072 47.9343956 21.0697434 46.3222715 21.0697434 49.5342773 28.7286907 50.3268084 28.7286907 53.5935825 21.0697434 51.9956338 21.0697434"></polygon>
            <polygon id="Fill-403" fill="#747678" points="54.2645277 28.5375829 58.4475451 28.5375829 58.4475451 27.2728609 55.7368313 27.2728609 55.7368313 25.2561766 58.3444516 25.2561766 58.3444516 23.9920908 55.7368313 23.9920908 55.7368313 22.334847 58.4475451 22.334847 58.4475451 21.0701251 54.2645277 21.0701251"></polygon>
            <path d="M61.32701,24.5067588 L60.8978835,24.5067588 L60.8978835,22.2438736 L61.3508504,22.2438736 C62.2709596,22.2438736 62.7690299,22.6268528 62.7690299,23.3527319 C62.7690299,24.1027858 62.2709596,24.5067588 61.32701,24.5067588 M64.2870811,23.274482 C64.2870811,21.8748903 63.3128479,21.0701251 61.6111614,21.0701251 L59.4217139,21.0701251 L59.4217139,28.5375829 L60.8978835,28.5375829 L60.8978835,25.5367311 L61.0905394,25.5367311 L63.13179,28.5375829 L64.9449463,28.5375829 L62.5628429,25.3916825 C63.675608,25.1677478 64.2870811,24.4170577 64.2870811,23.274482" id="Fill-404" fill="#747678"></path>
            <path d="M65.3224887,21.4718366 L65.3224887,21.3941944 L65.3221615,21.2703221 L65.5175525,21.2703221 L65.5605572,21.2703221 L65.5998224,21.2768663 L65.6278689,21.2834105 L65.6526434,21.2974337 L65.6704062,21.315664 L65.6844295,21.3371664 L65.6919086,21.3619408 L65.6951807,21.3941944 L65.6917683,21.4183144 L65.6847567,21.4398168 L65.6740055,21.458047 L65.6599822,21.4720703 L65.6416117,21.4863273 L65.6201094,21.4933389 L65.5958024,21.4998831 L65.5710279,21.4998831 L65.6776048,21.6779788 L65.6060861,21.6779788 L65.4999766,21.4998831 L65.41163,21.4998831 L65.41163,21.6779788 L65.3223484,21.6779788 L65.3223484,21.4718366 Z M65.1061095,21.4717431 L65.1061095,21.4824943 L65.1135886,21.5680363 L65.1350909,21.6456317 L65.1701491,21.7129435 L65.2159585,21.7727761 L65.2734539,21.8232599 L65.3407657,21.8620577 L65.4188286,21.8872996 L65.4996962,21.8943112 L65.5819661,21.8872996 L65.660029,21.8620577 L65.7273407,21.8232599 L65.7839013,21.7727761 L65.8297107,21.7129435 L65.8652363,21.6456317 L65.8872061,21.5680363 L65.8942177,21.4824943 L65.8942177,21.4720703 L65.8873463,21.396812 L65.8873463,21.3940541 L65.865657,21.3197308 L65.8296639,21.252419 L65.7838545,21.1916515 L65.727294,21.1421026 L65.6599822,21.1028374 L65.5819193,21.0780629 L65.5001169,21.0710513 L65.4187818,21.0780629 L65.3407189,21.1028374 L65.2729397,21.1421026 L65.2159117,21.1916515 L65.1701024,21.252419 L65.1345767,21.3197308 L65.1130879,21.3940074 L65.1134016,21.396812 L65.105955,21.4717431 Z M65.0003255,21.4717431 L65.0110316,21.3940074 L65.0111719,21.3795634 L65.0378161,21.2874772 L65.0878325,21.2061422 L65.1481326,21.1350909 L65.2229234,21.0780629 L65.3089328,21.0350582 L65.401019,21.0107512 L65.5001169,21 L65.5996821,21.0107512 L65.6917683,21.0350582 L65.7773103,21.0780629 L65.8521012,21.1350909 L65.9124013,21.2061422 L65.9619502,21.2874772 L65.9895293,21.3795634 L65.9895293,21.3940074 L66,21.4720703 L65.9998598,21.4824943 L65.989576,21.5853317 L65.9615295,21.6811574 L65.9119806,21.7662319 L65.8516805,21.8410228 L65.7768896,21.9013229 L65.6918151,21.9433927 L65.5997289,21.9723741 L65.4996962,21.9826579 L65.4010658,21.9723741 L65.3089796,21.9433927 L65.2234376,21.9013229 L65.1481793,21.8410228 L65.0883467,21.7662319 L65.0383303,21.6811574 L65.0112186,21.5853317 L65,21.4824943 L65,21.4717431 Z M65.6241294,21.3940074 L65.6241294,21.3759641 L65.6203898,21.3582013 L65.6133782,21.3437106 L65.6035619,21.3371664 L65.5923433,21.3301547 L65.5745805,21.3264152 L65.5572851,21.3231431 L65.5390548,21.3231431 L65.5175525,21.3231431 L65.411443,21.3231431 L65.411443,21.3940074 L65.4117702,21.4645912 L65.4996494,21.4645912 L65.5314355,21.458047 L65.5571449,21.4547749 L65.5781798,21.4468284 L65.5959426,21.4398168 L65.6099659,21.429533 L65.617445,21.4183144 L65.6239892,21.4014865 L65.6239892,21.3940074 Z" id="Combined-Shape" fill="#747678"></path>
            <circle id="Oval-2" fill="url(#radialGradient-1)" cx="42.5950967" cy="24.7614195" r="3.96774194"></circle>
          </g>
        </g>
      </g>
    </g>
  </g>
</svg>
