<?xml version="1.0" encoding="UTF-8"?>
<svg xmlns="http://www.w3.org/2000/svg" width="80" height="80" viewBox="0 0 80 80" fill="none">
  <path d="M40 59.2905C48.0887 61.8842 56.1644 57.1425 58 48.7218C49.896 46.1011 41.8203 50.8427 40 59.2905Z" fill="#3DBC62"></path>
  <path d="M39 27H41V64H39V27Z" fill="#017737"></path>
  <path d="M51.125 37L52.125 38.7321L40.0006 45.7321L39.0006 44L51.125 37Z" fill="#017737"></path>
  <path d="M27 44.7324L28 43.0004L40.1244 50.0004L39.1244 51.7324L27 44.7324Z" fill="#017737"></path>
  <circle cx="53" cy="37" r="7" fill="#6861F2"></circle>
  <circle cx="27" cy="44" r="7" fill="#6861F2"></circle>
  <circle cx="53" cy="37" r="2" fill="#D7F9D3"></circle>
  <circle cx="27" cy="44" r="3" fill="#D7F9D3"></circle>
  <path d="M52 19.2921C52 22.3972 50.7357 25.3752 48.4853 27.5708C46.2348 29.7665 43.1826 31 40 31C36.8174 31 33.7652 29.7665 31.5147 27.5708C29.2643 25.3752 28 22.3972 28 19.2921V18.3474C28 17.5165 29.1216 17.2134 29.5598 17.9259C30.2122 18.9867 31.7878 18.9867 32.4402 17.9259L32.5 17.8286C33.1794 16.7238 34.8206 16.7238 35.5 17.8286C36.1794 18.9334 37.8206 18.9334 38.5 17.8286C39.1794 16.7238 40.8206 16.7238 41.5 17.8286C42.1794 18.9334 43.8206 18.9334 44.5 17.8286C45.1794 16.7238 46.8206 16.7238 47.5 17.8286L47.5598 17.9259C48.2122 18.9867 49.7878 18.9867 50.4402 17.9259C50.8784 17.2134 52 17.5165 52 18.3474V19.2921Z" fill="#6861F2"></path>
</svg>
