<?xml version="1.0" encoding="UTF-8"?>
<svg xmlns="http://www.w3.org/2000/svg" width="72" height="72" viewBox="0 0 72 72" fill="none">
  <path d="M15 28.2105C15 16.4963 24.402 7 36 7C47.598 7 57 16.4963 57 28.2105C57 34.4849 53.6901 38.1036 50.307 41.8024C47.3738 45.0093 45.7404 48.2764 44.8065 53.3867C44.6381 54.3078 44.4907 55.4573 44.3768 56.4758C44.2174 57.9002 43.0254 59 41.5921 59H30.4079C28.9746 59 27.7826 57.9002 27.6232 56.4758C27.5093 55.4573 27.3619 54.3078 27.1935 53.3867C26.2596 48.2764 24.6262 45.0093 21.693 41.8024C18.3099 38.1036 15 34.4849 15 28.2105Z" stroke="#017737" stroke-width="2"></path>
  <path d="M31 59V60C31 62.7614 33.2386 65 36 65C38.7614 65 41 62.7614 41 60V59" stroke="#017737" stroke-width="2"></path>
  <path d="M28 53L44 53" stroke="#017737" stroke-width="2" stroke-linecap="round"></path>
  <path d="M43.6782 34.4516L44.6481 34.6951C44.6492 34.6905 44.6503 34.6859 44.6514 34.6813L43.6782 34.4516ZM34.4163 34.2442L35.4096 34.1289L34.4163 34.2442ZM37.5258 34.2442L38.5191 34.3595V34.3595L37.5258 34.2442ZM31.312 34.2017L32.2991 34.3621V34.3621L31.312 34.2017ZM40.63 34.2017L41.617 34.0413V34.0413L40.63 34.2017ZM40.8115 45.87L41.7814 46.1135V46.1135L40.8115 45.87ZM45.0588 32.9553C45.1857 32.4178 44.8528 31.8792 44.3153 31.7523C43.7778 31.6255 43.2392 31.9584 43.1123 32.4959L45.0588 32.9553ZM28.7118 32.4418C28.555 31.9122 27.9987 31.61 27.4691 31.7667C26.9395 31.9235 26.6373 32.4798 26.7941 33.0094L28.7118 32.4418ZM33.4229 34.3595C33.7741 37.3854 38.1679 37.3854 38.5191 34.3595L36.5324 34.1289C36.5083 34.3368 36.4272 34.4433 36.3501 34.5058C36.2601 34.5787 36.1263 34.6289 35.971 34.6289C35.8157 34.6289 35.6819 34.5787 35.5919 34.5058C35.5148 34.4433 35.4337 34.3368 35.4096 34.1289L33.4229 34.3595ZM27.3128 34.7606C28.1569 37.3579 31.8719 36.991 32.2991 34.3621L30.325 34.0413C30.2234 34.6663 29.3897 34.6804 29.2149 34.1425L27.3128 34.7606ZM32.2991 34.3621C32.3316 34.1623 32.4155 34.0558 32.4989 33.9918C32.5941 33.9189 32.7299 33.8719 32.882 33.8739C33.0342 33.8758 33.163 33.9261 33.2487 33.9966C33.3224 34.0572 33.3997 34.1598 33.4229 34.3595L35.4096 34.1289C35.2378 32.6485 34.0403 31.8886 32.9078 31.874C31.7791 31.8595 30.5623 32.5809 30.325 34.0413L32.2991 34.3621ZM39.6429 34.3621C40.0701 36.991 43.7851 37.3579 44.6292 34.7606L42.7271 34.1425C42.5523 34.6803 41.7186 34.6663 41.617 34.0413L39.6429 34.3621ZM38.5191 34.3595C38.5423 34.1598 38.6196 34.0572 38.6933 33.9966C38.7791 33.9261 38.9078 33.8758 39.06 33.8739C39.2122 33.8719 39.3479 33.9189 39.4431 33.9918C39.5265 34.0558 39.6105 34.1623 39.6429 34.3621L41.617 34.0413C41.3797 32.5809 40.1629 31.8595 39.0342 31.874C37.9017 31.8886 36.7043 32.6485 36.5324 34.1289L38.5191 34.3595ZM42.7083 34.2081L39.8416 45.6265L41.7814 46.1135L44.6481 34.6951L42.7083 34.2081ZM44.6514 34.6813L45.0588 32.9553L43.1123 32.4959L42.7049 34.2218L44.6514 34.6813ZM29.2227 34.1677L28.7118 32.4418L26.7941 33.0094L27.305 34.7354L29.2227 34.1677ZM27.2983 34.7117L32.2953 53.2601L34.2265 52.7399L29.2294 34.1914L27.2983 34.7117ZM39.8416 45.6265L38.0516 52.7565L39.9914 53.2435L41.7814 46.1135L39.8416 45.6265Z" fill="#017737"></path>
</svg>
