<?xml version="1.0" encoding="UTF-8"?>
<svg xmlns="http://www.w3.org/2000/svg" xmlns:xlink="http://www.w3.org/1999/xlink" width="81px" height="50px" viewBox="0 0 81 50" version="1.1">
  <title>jcb</title>
  <desc>Created with Sketch.</desc>
  <g id="Pricing-tiles" stroke="none" stroke-width="1" fill="none" fill-rule="evenodd">
    <g id="TEST_-Pricing-page-(Desktop-HD)" transform="translate(-1043.000000, -3856.000000)">
      <g id="Group-4" transform="translate(0.000000, 3560.000000)">
        <g id="Group">
          <g id="jcb" transform="translate(1042.000000, 296.000000)">
            <path d="M82,47 C82,48.6077307 80.5792944,50 79,50 L4,50 C2.41960088,50 1,48.6078937 1,47 L1,3 C1,1.39125025 2.41919667,0 4,0 L79,0 C80.5796989,0 82,1.39141309 82,3 L82,47 Z" id="Fill-33" fill="#FFFFFF" fill-rule="nonzero"></path>
            <g id="Group-3" transform="translate(47.172043, 10.576935)" fill="#747678">
              <path d="M8.96141849,15.9831111 C9.06034753,18.8725473 9.15927656,21.8587619 9.01120631,24.7981686 C8.91292387,25.953184 8.1745124,27.0613916 7.09081921,27.7356777 C6.2541253,28.265745 5.21957333,28.313818 4.13652674,28.3618909 L0.222040717,28.313818 L0.197470108,3.796623 C0.395328172,2.15898065 1.62579842,0.762968022 3.20155039,0.329046564 C5.1212909,0.0880493689 6.89490093,0.184195231 8.91292387,0.1361223 L9.01120631,1.38918121 L9.01120631,15.308825 L8.96141849,15.3568979 L8.96141849,15.9831111 Z" id="Fill-1"></path>
            </g>
            <path d="M27.7741935,25.6457748 L27.7741935,14.0848673 C28.0205462,12.7837355 29.1035928,11.5806471 30.3832043,11.0986527 C32.3035914,10.5205125 34.520119,10.8589206 36.4883541,10.8083175 C36.5866366,12.6888547 36.4883541,15.0482236 36.5381419,16.6864985 L36.637071,31.7611576 C36.3900717,34.0737187 37.2765534,37.204152 34.3216143,38.5052839 C32.4516616,39.4193021 29.9402867,38.8424269 27.8226882,39.0353512 L27.7741935,38.6982081 L27.7741935,26.1265041 L27.7741935,25.6457748 Z" id="Fill-4" fill="#747678"></path>
            <path d="M27.7741935,26.1263776 C28.5610996,27.1384393 29.6447928,27.9076062 30.9741921,27.9563116 C32.5990853,28.1017955 34.7160373,28.2453818 35.7990839,26.7525907 C36.5381419,25.9815262 36.0952244,24.9232892 36.2432946,23.9112275 L36.1935068,22.0806609 C35.2578839,21.8877366 34.4205434,22.0806609 33.3374968,22.0319554 C32.7962968,24.0073734 34.2239785,26.2225234 31.9098151,27.2345851 C31.3679685,27.3788039 30.5804158,27.2826581 30.0385692,26.945515 C29.1527341,26.7525907 29.6447928,25.355313 28.4634638,25.7411616 L27.7741935,25.6456482 L27.7741935,26.1263776 Z" id="Fill-6" fill="#FFFFFF"></path>
            <path d="M46.3353491,12.3995316 L46.3851369,35.8565919 C46.0411484,36.9635344 45.1540201,38.1678878 43.9235498,38.6018093 C42.0523039,39.2267574 39.7381405,38.9389523 37.6709763,38.9389523 L37.5714007,14.2294656 C37.6709763,13.0731851 38.4578824,12.0623885 39.4917878,11.4361753 C40.2308459,10.9541809 41.1173276,10.8080645 42.0523039,10.7612567 L46.2377133,10.7612567 L46.3353491,12.3995316 Z" id="Fill-8" fill="#747678"></path>
            <path d="M45.9419607,22.0803446 C46.0408897,22.3694147 45.9419607,22.6104119 45.9911019,22.947555 C44.514279,22.562339 42.6928209,22.1284175 41.3627751,23.1885522 C40.8713629,23.7654273 40.5752224,24.3448327 40.6243636,25.1146321 C40.7724338,25.9818425 41.3142804,26.8009799 42.1509743,27.138123 C43.4312324,27.523339 44.7599851,27.1861959 45.9419607,26.8958607 C45.9911019,27.138123 46.0408897,27.474001 45.9419607,27.6669252 L40.2797285,27.6669252 C39.2956109,27.474001 38.5074116,26.9451987 38.0644941,25.9818425 C37.6707177,25.0665592 37.8679292,23.8147654 38.5571994,23.0437008 C39.1475406,22.3694147 39.9848811,21.9841987 40.9198575,22.0322717 L45.9419607,22.0803446 Z" id="Fill-10" fill="#FFFFFF"></path>
            <path d="M52.8849683,25.2591039 C51.9493454,25.1142526 51.0130758,25.1629581 50.1272407,25.211031 C50.0780995,25.93339 50.1272407,26.5115303 50.2248766,27.1864489 C51.2109339,27.1864489 52.2933339,27.3294027 53.179169,26.8961137 C53.4261683,26.6563816 53.5729454,26.2711656 53.4759561,25.93339 C53.4261683,25.645585 53.179169,25.4039553 52.8849683,25.2591039 L52.8849683,25.2591039 Z M50.2248766,22.6106649 C50.0780995,23.1388346 50.0780995,23.8630913 50.1763819,24.4399665 C51.2109339,24.3931586 52.5396866,24.7771095 53.2289568,24.0073101 C53.4759561,23.7169749 53.3278859,23.2368781 53.179169,22.9946158 C52.3916163,22.3209623 51.2109339,22.7548837 50.2248766,22.6106649 L50.2248766,22.6106649 Z M56.1334615,26.5602358 C55.9860378,27.138376 55.4946257,27.6671783 54.9029913,27.7633241 L48.0096422,27.7633241 L47.7645827,27.6671783 C47.7645827,25.7410983 47.7141482,23.9111642 47.8130773,22.0318921 L52.1950515,22.0318921 C53.5729454,22.1767435 55.0995561,21.5986032 55.7403318,22.8510296 C55.9368966,23.2849511 55.8877554,23.8630913 55.5424737,24.2002344 C55.3465554,24.5361123 54.9029913,24.5860829 54.8040622,24.8251825 C55.3465554,24.9700338 55.9368966,25.4039553 56.1334615,25.93339 L56.1334615,26.5602358 Z" id="Fill-12" fill="#FFFFFF"></path>
          </g>
        </g>
      </g>
    </g>
  </g>
</svg>
