<?xml version="1.0" encoding="UTF-8"?>
<svg xmlns="http://www.w3.org/2000/svg" width="720" height="486" viewBox="0 0 720 486" fill="none">
  <rect width="720" height="486" fill="#AEEAB4"></rect>
  <rect x="44" y="54.3867" width="632.573" height="246.619" rx="13.211" fill="white"></rect>
  <g clip-path="url(#clip0_4540_24062)">
    <rect x="90.5625" y="87.4141" width="179.832" height="179.832" rx="89.916" fill="#CFD0F9"></rect>
    <path d="M225.551 220.488L251.718 300.723C252.175 302.125 252.408 303.59 252.408 305.065V420.102H94.1562L94.1569 310.111C94.1569 307.616 94.659 305.146 95.6347 302.839L141.256 220.488H225.551Z" fill="#014722"></path>
    <path fill-rule="evenodd" clip-rule="evenodd" d="M286.108 359.494H286.107V395.07C286.107 408.94 274.862 420.185 260.992 420.185L173.569 420.186C158.101 420.186 145.562 407.647 145.563 392.18L145.563 359.494H217.735L217.735 220.49L241.299 220.49C266.046 220.49 286.108 240.552 286.108 265.3V359.494Z" fill="#014722"></path>
    <path d="M43.0228 363.069H43.0749L41.1955 367.745C31.1188 392.813 49.6272 420.102 76.7066 420.102H184.074V363.069H109.736L169.276 220.488L138.328 220.488C113.548 220.487 95.9544 234.677 87.0323 256.405L43.0228 363.069Z" fill="#014722"></path>
    <path d="M177.78 243.866C190.195 243.866 200.259 233.4 200.259 220.488H155.301C155.301 233.4 165.365 243.866 177.78 243.866Z" fill="white"></path>
    <path d="M167.125 107.137C178.026 105.095 187.161 103.079 195.984 105.047C204.815 107.042 213.308 113.031 218.706 122.131C224.104 131.231 226.388 143.404 223.051 153.405C219.706 163.427 210.757 171.256 201.722 181.027C192.689 190.794 183.57 202.496 175.424 202.262C167.287 202.005 160.08 189.805 153.157 179.878C146.263 169.942 139.609 162.276 135.969 151.558C132.309 140.826 131.614 127.069 137.599 119.147C143.572 111.245 156.241 109.184 167.125 107.137Z" fill="#262647"></path>
    <path d="M206.344 178.984V192.311C206.344 200.111 201.658 206.817 194.948 209.768V222.767C194.948 232.208 187.296 239.861 177.855 239.861C168.415 239.861 160.762 232.208 160.762 222.767V209.768C154.052 206.817 149.367 200.111 149.367 192.311V178.984C145.171 178.984 141.77 175.582 141.77 171.387C141.77 167.191 145.171 163.79 149.367 163.79H151.266L156.964 142.797H198.747L204.445 163.79H206.344C210.54 163.79 213.941 167.191 213.941 171.387C213.941 175.582 210.54 178.984 206.344 178.984Z" fill="#AD7C4E"></path>
    <path d="M148.107 168.335C147.114 168.335 146.309 169.543 146.309 171.033C146.309 172.523 147.114 173.73 148.107 173.73" stroke="#69472C" stroke-width="0.973151" stroke-linecap="round"></path>
    <path d="M207.452 168.335C208.445 168.335 209.25 169.543 209.25 171.033C209.25 172.523 208.445 173.73 207.452 173.73" stroke="#69472C" stroke-width="0.973151" stroke-linecap="round"></path>
    <path d="M167.889 193.154C167.889 193.154 172.202 188.118 178.679 188.118C185.156 188.118 189.469 193.154 189.469 193.154C189.469 193.154 185.64 198.908 178.679 198.908C171.718 198.908 167.889 193.154 167.889 193.154Z" fill="#76411C"></path>
    <ellipse cx="164.702" cy="164.745" rx="1.79932" ry="1.79932" fill="#030A0F"></ellipse>
    <ellipse cx="191.092" cy="164.745" rx="1.79932" ry="1.79932" fill="#030A0F"></ellipse>
  </g>
  <path d="M330.655 146.381V142.76L346.926 119.154H330.562V114.279H354.054V117.9L337.799 141.506H354.147V146.381H330.655Z" fill="#51516C"></path>
  <path d="M366.311 146.867C364.803 146.867 363.444 146.596 362.236 146.052C361.037 145.498 360.087 144.683 359.384 143.607C358.692 142.531 358.346 141.203 358.346 139.625C358.346 138.267 358.594 137.144 359.09 136.255C359.586 135.367 360.262 134.656 361.12 134.123C361.977 133.591 362.943 133.188 364.017 132.916C365.102 132.634 366.223 132.431 367.38 132.305C368.775 132.159 369.906 132.028 370.774 131.913C371.641 131.788 372.271 131.6 372.664 131.349C373.067 131.088 373.268 130.685 373.268 130.142V130.048C373.268 128.867 372.922 127.953 372.23 127.305C371.538 126.657 370.541 126.333 369.24 126.333C367.866 126.333 366.776 126.636 365.97 127.242C365.174 127.848 364.637 128.564 364.358 129.39L359.121 128.637C359.534 127.174 360.216 125.952 361.166 124.969C362.117 123.976 363.279 123.234 364.653 122.743C366.027 122.242 367.545 121.991 369.209 121.991C370.355 121.991 371.497 122.127 372.633 122.398C373.769 122.67 374.808 123.12 375.748 123.747C376.688 124.363 377.442 125.204 378.01 126.27C378.589 127.336 378.878 128.669 378.878 130.267V146.381H373.485V143.074H373.299C372.958 143.743 372.478 144.37 371.858 144.955C371.249 145.53 370.479 145.995 369.549 146.35C368.63 146.695 367.55 146.867 366.311 146.867ZM367.767 142.698C368.893 142.698 369.87 142.473 370.696 142.024C371.523 141.564 372.158 140.958 372.602 140.205C373.057 139.453 373.284 138.633 373.284 137.744V134.907C373.108 135.054 372.809 135.189 372.385 135.315C371.972 135.44 371.507 135.55 370.991 135.644C370.474 135.738 369.963 135.822 369.456 135.895C368.95 135.968 368.511 136.031 368.139 136.083C367.303 136.198 366.554 136.386 365.892 136.647C365.231 136.908 364.71 137.274 364.327 137.744C363.945 138.204 363.754 138.8 363.754 139.531C363.754 140.576 364.131 141.365 364.885 141.898C365.639 142.431 366.6 142.698 367.767 142.698Z" fill="#51516C"></path>
  <path d="M394.9 146.852C392.524 146.852 390.484 146.324 388.779 145.268C387.085 144.213 385.778 142.755 384.859 140.895C383.95 139.025 383.495 136.872 383.495 134.437C383.495 131.992 383.96 129.834 384.89 127.963C385.82 126.082 387.132 124.619 388.826 123.574C390.53 122.519 392.545 121.991 394.869 121.991C396.801 121.991 398.511 122.351 399.998 123.073C401.496 123.783 402.689 124.792 403.578 126.098C404.466 127.394 404.972 128.909 405.096 130.644H399.735C399.518 129.484 399.001 128.517 398.185 127.744C397.38 126.96 396.3 126.568 394.947 126.568C393.8 126.568 392.793 126.882 391.925 127.509C391.057 128.125 390.381 129.013 389.895 130.173C389.42 131.333 389.182 132.723 389.182 134.343C389.182 135.984 389.42 137.394 389.895 138.575C390.37 139.746 391.037 140.65 391.894 141.287C392.762 141.914 393.779 142.228 394.947 142.228C395.773 142.228 396.512 142.071 397.163 141.757C397.824 141.433 398.376 140.968 398.821 140.362C399.265 139.756 399.57 139.019 399.735 138.152H405.096C404.962 139.855 404.466 141.365 403.609 142.682C402.751 143.988 401.584 145.012 400.107 145.754C398.629 146.486 396.894 146.852 394.9 146.852Z" fill="#51516C"></path>
  <path d="M415.312 132.274V146.381H409.702V114.279H415.188V126.396H415.467C416.025 125.037 416.887 123.966 418.055 123.182C419.232 122.388 420.73 121.991 422.548 121.991C424.201 121.991 425.642 122.341 426.872 123.041C428.101 123.741 429.051 124.765 429.723 126.113C430.405 127.462 430.745 129.107 430.745 131.051V146.381H425.136V131.929C425.136 130.309 424.723 129.05 423.896 128.151C423.08 127.242 421.934 126.788 420.456 126.788C419.465 126.788 418.576 127.007 417.791 127.446C417.016 127.874 416.407 128.496 415.963 129.311C415.529 130.126 415.312 131.114 415.312 132.274Z" fill="#51516C"></path>
  <path d="M464.782 123.104C464.637 121.735 464.027 120.669 462.953 119.906C461.889 119.143 460.505 118.762 458.8 118.762C457.602 118.762 456.574 118.945 455.717 119.31C454.859 119.676 454.203 120.173 453.749 120.8C453.294 121.427 453.062 122.142 453.051 122.947C453.051 123.616 453.201 124.196 453.501 124.687C453.811 125.178 454.229 125.596 454.756 125.941C455.283 126.275 455.866 126.558 456.507 126.788C457.147 127.017 457.793 127.211 458.444 127.367L461.419 128.12C462.617 128.402 463.769 128.783 464.874 129.264C465.99 129.745 466.987 130.351 467.865 131.083C468.754 131.814 469.456 132.697 469.973 133.732C470.489 134.766 470.747 135.978 470.747 137.368C470.747 139.249 470.272 140.906 469.322 142.337C468.371 143.758 466.997 144.871 465.2 145.676C463.413 146.47 461.249 146.867 458.707 146.867C456.238 146.867 454.095 146.481 452.277 145.707C450.469 144.934 449.053 143.805 448.031 142.322C447.018 140.838 446.471 139.03 446.388 136.898H452.044C452.127 138.016 452.468 138.946 453.067 139.688C453.666 140.43 454.446 140.984 455.407 141.35C456.378 141.715 457.462 141.898 458.661 141.898C459.911 141.898 461.006 141.71 461.946 141.334C462.896 140.947 463.64 140.414 464.177 139.735C464.714 139.045 464.988 138.241 464.998 137.321C464.988 136.485 464.745 135.795 464.27 135.252C463.795 134.698 463.129 134.238 462.271 133.873C461.424 133.496 460.432 133.162 459.296 132.869L455.686 131.929C453.072 131.25 451.006 130.22 449.487 128.841C447.979 127.451 447.225 125.607 447.225 123.308C447.225 121.416 447.731 119.76 448.744 118.339C449.766 116.917 451.156 115.815 452.912 115.031C454.668 114.237 456.657 113.84 458.878 113.84C461.13 113.84 463.103 114.237 464.797 115.031C466.502 115.815 467.839 116.907 468.81 118.307C469.781 119.697 470.282 121.296 470.313 123.104H464.782Z" fill="#51516C"></path>
  <path d="M479.08 146.726C478.14 146.726 477.334 146.392 476.663 145.723C475.991 145.054 475.661 144.239 475.671 143.278C475.661 142.337 475.991 141.533 476.663 140.864C477.334 140.195 478.14 139.861 479.08 139.861C479.989 139.861 480.779 140.195 481.451 140.864C482.133 141.533 482.479 142.337 482.489 143.278C482.479 143.915 482.313 144.495 481.993 145.018C481.683 145.54 481.27 145.958 480.754 146.272C480.247 146.575 479.69 146.726 479.08 146.726Z" fill="#51516C"></path>
  <path d="M330.562 228.945C330.562 225.297 333.52 222.34 337.168 222.34H495.7C499.348 222.34 502.306 225.297 502.306 228.945C502.306 232.593 499.348 235.551 495.7 235.551H337.168C333.52 235.551 330.562 232.593 330.562 228.945Z" fill="#D0D7D3"></path>
  <path d="M330.562 193.707C330.562 190.059 333.52 187.102 337.168 187.102H557.352C561 187.102 563.957 190.059 563.957 193.707C563.957 197.355 561 200.313 557.352 200.313H337.168C333.52 200.313 330.562 197.355 330.562 193.707Z" fill="#D0D7D3"></path>
  <rect x="44.3203" y="332.43" width="286.239" height="101.284" rx="13.211" fill="#25A14F"></rect>
  <path d="M209.725 385.938H190.755V404.909H184.431V385.938H165.461V379.615H184.431V360.645H190.755V379.615H209.725V385.938Z" fill="white"></path>
  <path fill-rule="evenodd" clip-rule="evenodd" d="M251.037 418.305V400.168C251.037 397.414 253.269 395.182 256.023 395.182C258.777 395.182 261.01 397.414 261.01 400.168V417.265C261.01 414.511 263.242 412.278 265.996 412.278C268.75 412.278 270.983 414.511 270.983 417.265V418.689C270.983 415.935 273.215 413.703 275.969 413.703C278.723 413.703 280.956 415.935 280.956 418.689V422.964C280.956 420.21 283.188 417.977 285.942 417.977C288.696 417.977 290.929 420.21 290.929 422.964V443.08C290.929 456.754 280.085 467.842 266.708 467.842C253.332 467.842 242.488 456.754 242.488 443.077C242.488 436.501 247.056 423.161 251.145 417.22L251.037 418.305Z" fill="white"></path>
  <path d="M251.037 400.168V418.305L251.145 417.22C247.056 423.161 242.488 436.501 242.488 443.077C242.488 456.754 253.332 467.842 266.708 467.842C280.085 467.842 290.929 456.754 290.929 443.08V422.964C290.929 420.21 288.696 417.977 285.942 417.977C283.188 417.977 280.956 420.21 280.956 422.964V418.689M251.037 400.168C251.037 397.414 253.269 395.182 256.023 395.182C258.777 395.182 261.01 397.414 261.01 400.168M251.037 400.168L251.037 436.498M261.01 400.168V417.265M261.01 400.168L261.01 425.673M261.01 417.265C261.01 414.511 263.242 412.278 265.996 412.278C268.75 412.278 270.983 414.511 270.983 417.265M261.01 417.265L261.01 426.19M270.983 417.265V418.689M270.983 417.265V427.95M270.983 418.689C270.983 415.935 273.215 413.703 275.969 413.703C278.723 413.703 280.956 415.935 280.956 418.689M270.983 418.689V425.415M280.956 418.689V427.95" stroke="#262647" stroke-width="2.20183" stroke-linecap="round" stroke-linejoin="round"></path>
  <defs>
    <clipPath id="clip0_4540_24062">
      <rect x="90.5625" y="87.4141" width="179.832" height="179.832" rx="89.916" fill="white"></rect>
    </clipPath>
  </defs>
</svg>
