<?xml version="1.0" encoding="UTF-8"?>
<svg xmlns="http://www.w3.org/2000/svg" xmlns:xlink="http://www.w3.org/1999/xlink" width="81px" height="50px" viewBox="0 0 81 50" version="1.1">
  <title>mastecard</title>
  <desc>Created with Sketch.</desc>
  <g id="Pricing-tiles" stroke="none" stroke-width="1" fill="none" fill-rule="evenodd">
    <g id="TEST_-Pricing-page-(Desktop-HD)" transform="translate(-799.000000, -3856.000000)">
      <g id="Group-4" transform="translate(0.000000, 3560.000000)">
        <g id="Group">
          <g id="mastecard" transform="translate(798.000000, 296.000000)">
            <path d="M82,47 C82,48.6092134 80.5796708,50 79,50 L4,50 C2.41922492,50 1,48.6093761 1,47 L1,3 C1,1.39171106 2.41939602,0 4,0 L79,0 C80.5794994,0 82,1.39187396 82,3 L82,47 Z" id="Fill-47" fill="#FFFFFF" fill-rule="nonzero"></path>
            <polygon id="Fill-1" fill="#CBCCCD" points="51.0104839 9.58064516 50.2466935 9.60114516 49.4888548 9.65669355 48.7468871 9.75191935 48.0135161 9.88219355 47.2953548 10.0475161 46.5884355 10.2492097 45.9006935 10.484629 45.2222097 10.7498065 44.5642258 11.0526774 43.9274032 11.3780323 43.305129 11.7344677 42.7033548 12.1213226 42.1214194 12.5372742 41.558 12.9796774 41.0210323 13.4465484 40.5032419 13.9385484 40.0125645 14.4556774 39.5450323 14.9972742 39.1039516 15.5540806 38.692629 16.1366774 38.3057742 16.7437419 37.9493387 17.3613871 37.6180323 18.0048226 37.3217742 18.6614839 37.0552742 19.3340161 36.8251452 20.0270484 36.6234516 20.73 36.458129 21.4468387 36.3278548 22.1755806 36.232629 22.9182097 36.1764194 23.6707581 36.1565806 24.4338871 36.1764194 25.2023065 36.232629 25.9601452 36.3278548 26.7034355 36.458129 27.4407742 36.6234516 28.1589355 36.8251452 28.8658548 37.0552742 29.5588871 37.3217742 30.237371 37.6180323 30.8993226 37.9493387 31.5414355 38.3057742 32.1650323 38.692629 32.7720968 39.1039516 33.3546935 39.5450323 33.9154677 40.0125645 34.4583871 40.5032419 34.9761774 41.0210323 35.4728065 41.558 35.9396774 42.1214194 36.3820806 42.7033548 36.7980323 43.305129 37.1842258 43.9274032 37.5459516 44.5642258 37.8719677 45.2222097 38.1735161 45.9006935 38.4393548 46.5884355 38.6754355 47.2953548 38.8764677 48.0135161 39.041129 48.7468871 39.1727258 49.4888548 39.2672903 50.2466935 39.3228387 51.0104839 39.3420161 51.7775806 39.3228387 52.5367419 39.2672903 53.2800323 39.1727258 54.017371 39.041129 54.7342097 38.8764677 55.4431129 38.6754355 56.1354839 38.4393548 56.8133065 38.1735161 57.4752581 37.8719677 58.1186935 37.5459516 58.7403065 37.1842258 59.3480323 36.7980323 59.930629 36.3820806 60.4920645 35.9396774 61.0349839 35.4728065 61.5521129 34.9761774 62.0480806 34.4583871 62.5156129 33.9154677 62.9580161 33.3546935 63.3739677 32.7720968 63.7608226 32.1650323 64.1212258 31.5414355 64.4472419 30.8993226 64.7494516 30.237371 65.0152903 29.5588871 65.2500484 28.8658548 65.4524032 28.1589355 65.6170645 27.4407742 65.748 26.7034355 65.8432258 25.9601452 65.8987742 25.2023065 65.9179516 24.4338871 65.8987742 23.6707581 65.8432258 22.9182097 65.748 22.1755806 65.6170645 21.4468387 65.4524032 20.73 65.2500484 20.0270484 65.0152903 19.3340161 64.7494516 18.6614839 64.4472419 18.0048226 64.1212258 17.3613871 63.7608226 16.7437419 63.3739677 16.1366774 62.9580161 15.5540806 62.5156129 14.9972742 62.0480806 14.4556774 61.5521129 13.9385484 61.0349839 13.4465484 60.4920645 12.9796774 59.930629 12.5372742 59.3480323 12.1213226 58.7403065 11.7344677 58.1186935 11.3780323 57.4752581 11.0526774 56.8133065 10.7498065 56.1354839 10.484629 55.4431129 10.2492097 54.7342097 10.0475161 54.017371 9.88219355 53.2800323 9.75191935 52.5367419 9.65669355 51.7775806 9.60114516"></polygon>
            <polygon id="Fill-2" fill="#747678" points="31.1023387 9.58064516 30.3339194 9.60114516 29.5760806 9.65669355 28.8327903 9.75191935 28.0947903 9.88219355 27.3772903 10.0475161 26.6690484 10.2492097 25.9766774 10.484629 25.2995161 10.7498065 24.6369032 11.0526774 23.994129 11.3780323 23.3718548 11.7344677 22.764129 12.1213226 22.1815323 12.5372742 21.6194355 12.9796774 21.0771774 13.4465484 20.561371 13.9385484 20.0640806 14.4556774 19.5972097 14.9972742 19.1554677 15.5540806 18.7381935 16.1366774 18.352 16.7437419 17.9902742 17.3613871 17.6649194 18.0048226 17.3627097 18.6614839 17.096871 19.3340161 16.8614516 20.0270484 16.6604194 20.73 16.4950968 21.4468387 16.3641613 22.1755806 16.2682742 22.9182097 16.2140484 23.6707581 16.1935484 24.4338871 16.2140484 25.2023065 16.2682742 25.9601452 16.3641613 26.7034355 16.4950968 27.4407742 16.6604194 28.1589355 16.8614516 28.8658548 17.096871 29.5588871 17.3627097 30.237371 17.6649194 30.8993226 17.9902742 31.5414355 18.352 32.1650323 18.7381935 32.7720968 19.1554677 33.3546935 19.5972097 33.9154677 20.0640806 34.4583871 20.561371 34.9761774 21.0771774 35.4728065 21.6194355 35.9396774 22.1815323 36.3820806 22.764129 36.7980323 23.3718548 37.1842258 23.994129 37.5459516 24.6369032 37.8719677 25.2995161 38.1735161 25.9766774 38.4393548 26.6690484 38.6754355 27.3772903 38.8764677 28.0947903 39.041129 28.8327903 39.1727258 29.5760806 39.2672903 30.3339194 39.3228387 31.1023387 39.3420161 31.8648065 39.3228387 32.6226452 39.2672903 33.3665968 39.1727258 34.0993065 39.041129 34.8168065 38.8764677 35.5237258 38.6754355 36.212129 38.4393548 36.8899516 38.1735161 37.5472742 37.8719677 38.1847581 37.5459516 38.8070323 37.1842258 39.4088065 36.7980323 39.9920645 36.3820806 40.5541613 35.9396774 41.091129 35.4728065 41.6082581 34.9761774 42.1002581 34.4583871 42.5677903 33.9154677 43.008871 33.3546935 43.4195323 32.7720968 43.8077097 32.1650323 44.1634839 31.5414355 44.4947903 30.8993226 44.7903871 30.237371 45.0568871 29.5588871 45.2876774 28.8658548 45.4880484 28.1589355 45.6546935 27.4407742 45.7843065 26.7034355 45.8801935 25.9601452 45.9350806 25.2023065 45.9549194 24.4338871 45.9350806 23.6707581 45.8801935 22.9182097 45.7843065 22.1755806 45.6546935 21.4468387 45.4880484 20.73 45.2876774 20.0270484 45.0568871 19.3340161 44.7903871 18.6614839 44.4947903 18.0048226 44.1634839 17.3613871 43.8077097 16.7437419 43.4195323 16.1366774 43.008871 15.5540806 42.5677903 14.9972742 42.1002581 14.4556774 41.6082581 13.9385484 41.091129 13.4465484 40.5541613 12.9796774 39.9920645 12.5372742 39.4088065 12.1213226 38.8070323 11.7344677 38.1847581 11.3780323 37.5472742 11.0526774 36.8899516 10.7498065 36.212129 10.484629 35.5237258 10.2492097 34.8168065 10.0475161 34.0993065 9.88219355 33.3665968 9.75191935 32.6226452 9.65669355 31.8648065 9.60114516"></polygon>
            <polygon id="Fill-3" fill="#CBCCCD" points="39.314771 15.2885065 47.2204968 15.2885065 47.2204968 14.4797484 39.9972226 14.4797484"></polygon>
            <polygon id="Fill-4" fill="#CBCCCD" points="38.1297387 17.0851 47.2204968 17.0851 47.2204968 16.2763419 38.606529 16.2763419"></polygon>
            <polygon id="Fill-5" fill="#CBCCCD" points="37.2466516 18.8774613 47.2202323 18.8774613 47.2202323 18.0687032 37.5977968 18.0687032"></polygon>
            <polygon id="Fill-6" fill="#CBCCCD" points="36.6389258 20.6743855 47.2202323 20.6743855 47.2202323 19.8662887 36.8895548 19.8662887"></polygon>
            <polygon id="Fill-7" fill="#CBCCCD" points="36.9906 29.3587145 47.245229 29.3587145 47.245229 28.5506177 36.7393097 28.5506177"></polygon>
            <polygon id="Fill-8" fill="#CBCCCD" points="37.7481081 31.1555726 47.2455597 31.1555726 47.2455597 30.3474758 37.3718339 30.3474758"></polygon>
            <polygon id="Fill-9" fill="#CBCCCD" points="38.8117274 32.9476694 47.2451629 32.9476694 47.2451629 32.1395726 38.3058403 32.1395726"></polygon>
            <polygon id="Fill-10" fill="#CBCCCD" points="40.2783371 34.7445935 47.2456919 34.7445935 47.2456919 33.9312065 39.5707565 33.9312065"></polygon>
            <polygon id="Fill-11" fill="#CBCCCD" points="36.282821 22.4664823 47.2205629 22.4664823 47.2205629 21.6583855 36.4382242 21.6583855"></polygon>
            <polygon id="Fill-12" fill="#CBCCCD" points="42.9483629 27.5669484 47.1197823 27.5669484 47.1197823 26.7581903 43.0997984 26.7581903"></polygon>
            <polygon id="Fill-13" fill="#CBCCCD" points="43.2802645 25.7741903 47.1197161 25.7741903 47.1197161 24.9614645 43.4310387 24.9614645"></polygon>
            <polygon id="Fill-14" fill="#D2D2D3" points="36.0064016 24.9612 37.091579 24.9612 37.091579 25.7739258 36.057321 25.7739258"></polygon>
            <polygon id="Fill-15" fill="#FFFFFF" points="33.9827871 23.981829 33.9133516 23.9772 33.8432548 23.9672806 33.7771258 23.9573613 33.7129806 23.9474419 33.6514806 23.9375226 33.5866742 23.9269419 33.522529 23.9176839 33.4511097 23.9071032 33.3810129 23.8978452 33.3009968 23.8918935 33.2104 23.8866032 33.1158355 23.8819742 33.0093677 23.8819742 32.8943032 23.8866032 32.7633677 23.8978452 32.6185452 23.9071032 32.518029 23.9223129 32.4228032 23.9375226 32.3368355 23.9672806 32.2621097 23.9970387 32.1913516 24.0327484 32.1265452 24.0724258 32.0756258 24.1233452 32.0299968 24.1683129 32.0009 24.2232 31.975771 24.2787484 31.9651903 24.3382645 31.9651903 24.3991032 31.9804 24.464571 32.0009 24.5293774 32.0399161 24.5948452 32.0908355 24.6603129 32.1913516 24.7548774 32.3123677 24.8309258 32.4525613 24.8957323 32.6033355 24.9506194 32.7633677 25.0015387 32.9286903 25.0564258 33.0946742 25.1172645 33.2553677 25.182071 33.4061419 25.2673774 33.5463355 25.3725226 33.6719806 25.498829 33.7771258 25.6542323 33.8578032 25.8446839 33.9087226 26.0708452 33.9279 26.3419742 33.9087226 26.658071 33.8736742 26.8941516 33.8128355 27.0998129 33.7321581 27.2902645 33.6323032 27.4555871 33.5172387 27.6023935 33.3856419 27.7273774 33.2454484 27.8378129 33.0907065 27.9337 32.9286903 28.0084258 32.7633677 28.0732323 32.5927548 28.1234903 32.4175129 28.163829 32.2462387 28.1949097 32.0815774 28.2094581 31.9155935 28.2193774 31.7601903 28.2233452 31.5432871 28.2233452 31.3429161 28.2193774 31.1670129 28.2193774 31.0016903 28.2147484 30.8509161 28.2094581 30.7160129 28.1988774 30.5956581 28.1889581 30.4799323 28.1737484 30.3741258 28.163829 30.2795613 28.1439903 30.1836742 28.1281194 30.0983677 28.1036516 30.0124 28.0838129 29.9330452 28.0527323 29.8523677 28.0236355 29.7664 27.9932161 29.9925613 26.8842323 30.0381903 26.8941516 30.0924161 26.9093613 30.1631742 26.9285387 30.2491419 26.9497 30.3390774 26.9695387 30.4395935 26.9893774 30.550029 27.0138452 30.6697226 27.0343452 30.796029 27.0541839 30.9269645 27.0746839 31.0618677 27.0892323 31.2027226 27.1044419 31.3475452 27.109071 31.4943516 27.1143613 31.6385129 27.1143613 31.7846581 27.109071 31.9301419 27.0799742 32.0458677 27.0389742 32.1358032 26.9840871 32.2065613 26.9139903 32.2568194 26.8438935 32.2971581 26.7625548 32.3222871 26.6832 32.3421258 26.6078129 32.3527065 26.4616677 32.3070774 26.3366839 32.2211097 26.2355065 32.0961258 26.1508613 31.9453516 26.0754742 31.7694484 26.0000871 31.5737065 25.929329 31.3786258 25.8499742 31.1775935 25.7593774 30.9871419 25.6542323 30.8112387 25.5232968 30.6505452 25.3678935 30.5249 25.1767806 30.4343032 24.9506194 30.3893355 24.6808129 30.3939645 24.3594258 30.4190935 24.1630226 30.4554645 23.9772 30.5050613 23.8065871 30.5645774 23.6465548 30.6452548 23.4957806 30.7351903 23.3648452 30.8409968 23.2392 30.9666419 23.1294258 31.1134484 23.0342 31.2728194 22.9535226 31.4533516 22.8781355 31.6543839 22.8232484 31.8805452 22.7776194 32.1265452 22.742571 32.3970129 22.7227323 32.6939323 22.7167806 32.8790935 22.7167806 33.0497065 22.7227323 33.205771 22.7280226 33.3459645 22.7326516 33.4716097 22.742571 33.5866742 22.7524903 33.6871903 22.7624097 33.7771258 22.7729903 33.8630935 22.7822484 33.9338516 22.7981194 33.9979968 22.8080387 34.0594968 22.8179581 34.1090935 22.8272161 34.1540613 22.8331677 34.199029 22.8430871 34.2393677 22.8483774"></polygon>
            <polygon id="Fill-17" fill="#FFFFFF" points="35.1729774 21.6085242 36.5643323 21.6085242 36.3580097 22.8233145 37.1965258 22.8233145 37.0153323 23.9574274 36.1311871 23.9322984 35.650429 26.7328629 35.6451387 26.833379 35.6696065 26.9193468 35.7205258 26.9841532 35.7859935 27.0390403 35.875929 27.07475 35.9764452 27.1045081 36.0862194 27.1243468 36.2072355 27.1349274 36.3170097 27.1302984 36.4175258 27.1197177 36.5087839 27.1045081 36.5888 27.0846694 36.6542677 27.0641694 36.6992355 27.049621 36.7296548 27.0390403 36.7389129 27.0344113 36.5643323 27.9681532 36.5286226 27.9932823 36.4935742 28.013121 36.4578645 28.0329597 36.4234774 28.0527984 36.3877677 28.0680081 36.347429 28.0832177 36.3024613 28.0984274 36.2574935 28.1136371 36.2072355 28.1281855 36.1563161 28.1387661 36.0968 28.1486855 36.0372839 28.1592661 35.9718161 28.1691855 35.8957677 28.1791048 35.8150903 28.1890242 35.7297839 28.1989435 35.3482194 28.1989435 35.1471871 28.1837339 34.9719452 28.1638952 34.8119129 28.1341371 34.6763484 28.0984274 34.5599613 28.0527984 34.4653968 28.0038629 34.3800903 27.9430242 34.3146226 27.8775565 34.2643645 27.8074597 34.2286548 27.7221532 34.2041871 27.6361855 34.1889774 27.541621 34.1843484 27.4358145 34.1843484 27.325379 34.1988968 27.2103145 34.2147677 27.0846694"></polygon>
            <polygon id="Fill-20" fill="#FFFFFF" points="50.2767823 23.1242016 50.2119758 23.0891532 50.1471694 23.0587339 50.07575 23.0236855 50.0010242 22.9879758 49.9249758 22.9582177 49.8409919 22.9284597 49.7550242 22.8980403 49.66575 22.8682823 49.5698629 22.8431532 49.4733145 22.8233145 49.3688306 22.8028145 49.2636855 22.7876048 49.1479597 22.7776855 49.0328952 22.7677661 48.9125403 22.7677661 48.7868952 22.7677661 48.66125 22.7677661 48.5303145 22.7776855 48.39475 22.7928952 48.2545565 22.8180242 48.1143629 22.8577016 47.9741694 22.91325 47.8333145 22.9840081 47.6917984 23.0732823 47.5568952 23.184379 47.4259597 23.3146532 47.3003145 23.4753468 47.180621 23.6611694 47.0695242 23.8820403 46.964379 24.1326694 46.8691532 24.4150403 46.7897984 24.7357661 46.7580565 24.9156371 46.738879 25.0915403 46.7282984 25.2674435 46.73425 25.4380565 46.7481371 25.6086694 46.7831855 25.7700242 46.8288145 25.9201371 46.8837016 26.0709113 46.9590887 26.2064758 47.0490242 26.3360887 47.1554919 26.4518145 47.2758468 26.557621 47.4114113 26.6482177 47.5661532 26.7229435 47.7374274 26.7884113 47.927879 26.833379 47.9933468 26.8479274 48.0693952 26.8631371 48.1599919 26.8737177 48.2598468 26.8842984 48.369621 26.8942177 48.4860081 26.8942177 48.6103306 26.8942177 48.7366371 26.8842984 48.8669113 26.8684274 48.9971855 26.8432984 49.1228306 26.80825 49.2484758 26.7685726 49.3734597 26.7130242 49.4891855 26.6482177 49.5943306 26.5682016 49.6948468 26.4776048 49.4700081 27.8180403 49.4389274 27.8425081 49.4098306 27.8729274 49.3688306 27.9086371 49.3245242 27.9370726 49.2689758 27.9774113 49.1982177 28.013121 49.1175403 28.0481694 49.0276048 28.0779274 48.9125403 28.1136371 48.7816048 28.1387661 48.6314919 28.1592661 48.4549274 28.1791048 48.2598468 28.1890242 48.0330242 28.1943145 47.7784274 28.1890242 47.4960565 28.1738145 47.2652661 28.1486855 47.0344758 28.0984274 46.8043468 28.0237016 46.5728952 27.9225242 46.3520242 27.8028306 46.1410726 27.6513952 45.9407016 27.4761532 45.754879 27.2757823 45.5882339 27.049621 45.4487016 26.7989919 45.3283468 26.5179435 45.2384113 26.2117661 45.1782339 25.8751694 45.1570726 25.5187339 45.1676532 25.12725 45.221879 24.7099758 45.262879 24.5049758 45.3071855 24.3039435 45.3581048 24.1082016 45.4090242 23.922379 45.4625887 23.7464758 45.5280565 23.5712339 45.5941855 23.40525 45.6642823 23.2498468 45.7403306 23.0944435 45.8150565 22.9482984 45.9003629 22.8081048 45.9902984 22.6778306 46.0808952 22.5515242 46.1814113 22.4318306 46.2812661 22.3213952 46.3870726 22.2155887 46.5021371 22.1150726 46.6178629 22.0198468 46.738879 21.9345403 46.8645242 21.8538629 46.9994274 21.7784758 47.1349919 21.7143306 47.2758468 21.6534919 47.4213306 21.5979435 47.5773952 21.5476855 47.7314758 21.5080081 47.8928306 21.4722984 48.0641048 21.4432016 48.2340565 21.4174113 48.41525 21.3975726 48.5957823 21.3876532 48.7868952 21.3817016 48.94825 21.3876532 49.1029919 21.3975726 49.2537661 21.4127823 49.403879 21.432621 49.5447339 21.4524597 49.6802984 21.482879 49.8105726 21.5080081 49.9309274 21.5377661 50.0466532 21.5675242 50.1471694 21.5979435 50.2430565 21.6283629 50.3224113 21.658121 50.3931694 21.68325 50.4533468 21.70375 50.4983145 21.7235887 50.5287339 21.7341694"></polygon>
            <polygon id="Fill-22" fill="#FFFFFF" points="62.635571 28.1988113 61.2455387 28.1988113 61.3460548 27.6420048 61.3460548 27.5917468 61.2653774 27.6922629 61.1794097 27.7821984 61.0954258 27.8622145 61.004829 27.9336339 60.9142323 27.9984403 60.8236355 28.0526661 60.7337 28.0982952 60.6378129 28.1439242 60.5432484 28.1789726 60.4473613 28.2041016 60.3514742 28.2292306 60.2509581 28.2431177 60.1517645 28.2589887 60.0558774 28.2695694 59.9560226 28.2741984 59.8555065 28.2741984 59.5942968 28.2543597 59.3535871 28.1988113 59.1327161 28.1135048 58.9316839 27.9984403 58.7511516 27.8522952 58.5897968 27.6823435 58.4496032 27.4958597 58.3285871 27.2855694 58.2293935 27.0587468 58.1487161 26.8239887 58.0931677 26.5779887 58.052829 26.3214081 58.0382806 26.0654887 58.0429097 25.8049403 58.0673774 25.549021 58.1130065 25.2931016 58.1883935 24.9961823 58.2789903 24.7151339 58.3847968 24.4592145 58.5097806 24.2185048 58.6400548 23.9923435 58.790829 23.7913113 58.9462323 23.6114403 59.1122161 23.4454565 59.2881194 23.2993113 59.4732806 23.1743274 59.6643935 23.0638919 59.8555065 22.9785855 60.0558774 22.9078274 60.2562484 22.863521 60.4566194 22.8331016 60.6629419 22.8231823 60.8090871 22.8278113 60.9492806 22.843021 61.0802161 22.86815 61.200571 22.9038597 61.3156355 22.9441984 61.4168129 22.9885048 61.5166677 23.0440532 61.6072645 23.0996016 61.6872806 23.1584565 61.7620065 23.2245855 61.8274742 23.2900532 61.8883129 23.3548597 61.9379097 23.4203274 61.9835387 23.4857952 62.0238774 23.5459726 62.0536355 23.60615 62.4054419 21.633521 63.7703452 21.633521"></polygon>
            <polygon id="Fill-24" fill="#D2D2D3" points="60.3617903 26.9844177 60.5019839 26.9744984 60.6329194 26.944079 60.7539355 26.9090306 60.8696613 26.8541435 60.9748065 26.7939661 61.0746613 26.7179177 61.1705484 26.6332726 61.2551935 26.5420145 61.3305806 26.4414984 61.4013387 26.3310629 61.4661452 26.2159984 61.5216935 26.0963048 61.5719516 25.9699984 61.6122903 25.8397242 61.6466774 25.7041597 61.6724677 25.5685952 61.6969355 25.4284016 61.7121452 25.2829177 61.7121452 25.1466919 61.7081774 25.0064984 61.6923065 24.8762242 61.6724677 24.750579 61.6374194 24.6295629 61.5970806 24.5144984 61.5468226 24.4146435 61.4866452 24.3187565 61.4218387 24.238079 61.3457903 24.1679823 61.2604839 24.1078048 61.1705484 24.0674661 61.0746613 24.0429984 60.9701774 24.0324177 60.8332903 24.0429984 60.7083065 24.0628371 60.5925806 24.1031758 60.4775161 24.1527726 60.377 24.2182403 60.2764839 24.2989177 60.1911774 24.3842242 60.105871 24.47945 60.0304839 24.5892242 59.9603871 24.7056113 59.8942581 24.8253048 59.839371 24.9562403 59.7897742 25.0911435 59.7500968 25.2280306 59.7097581 25.3721919 59.68 25.5183371 59.6535484 25.7398694 59.6647903 25.980579 59.6991774 26.2259177 59.7653065 26.4619984 59.8651613 26.668321 59.9954355 26.8336435 60.1607581 26.944079"></polygon>
            <polygon id="Fill-25" fill="#FFFFFF" points="29.5365355 27.0845371 29.3348419 28.1988113 28.0697935 28.1988113 28.1055032 27.99315 28.1312935 27.8073274 28.1498097 27.6671339 28.170971 27.5917468 28.1008742 27.6717629 28.0201968 27.7524403 27.924971 27.8278274 27.8191645 27.8979242 27.6988097 27.968021 27.5731645 28.0281984 27.442229 28.0883758 27.3066645 28.1386339 27.1605194 28.1836016 27.0163581 28.2193113 26.8702129 28.2497306 26.7201 28.2695694 26.5746161 28.2794887 26.4291323 28.2841177 26.2882774 28.2695694 26.1520516 28.2497306 25.9768097 28.2041016 25.8161161 28.1538435 25.6759226 28.0883758 25.5502774 28.0129887 25.4405032 27.9336339 25.3399871 27.8423758 25.2593097 27.7464887 25.1885516 27.6472952 25.1290355 27.5414887 25.0781161 27.4303919 25.0384387 27.3206177 25.0080194 27.2101823 24.9881806 27.0951177 24.972971 26.9787306 24.9630516 26.8682952 24.9630516 26.7578597 24.9776 26.5621177 25.0080194 26.3769565 25.0589387 26.2010532 25.1237452 26.0304403 25.2037613 25.8697468 25.2943581 25.7242629 25.3995032 25.5840694 25.5205194 25.4577629 25.6461645 25.3426984 25.7863581 25.2368919 25.9325032 25.1416661 26.0819548 25.0609887 26.2426484 24.9922145 26.4092935 24.9360048 26.5792452 24.8910371 26.7551484 24.8606177 26.7650677 24.8606177 26.7901968 24.8553274 26.8259065 24.8506984 26.8801323 24.8460694 26.940971 24.83615 27.0110677 24.8308597 27.0857935 24.8209403 27.1717613 24.811021 27.2570677 24.8011016 27.3430355 24.7911823 27.4336323 24.7852306 27.5129871 24.7753113 27.5936645 24.7706823 27.6683903 24.7647306 27.7391484 24.7607629 27.7940355 24.7607629 27.9104226 24.7607629 28.0307774 24.7647306 28.1405516 24.7706823 28.2509871 24.7706823 28.3409226 24.7753113 28.4116806 24.7806016 28.4612774 24.7852306 28.4764871 24.7852306 28.4870677 24.7501823 28.5168258 24.6602468 28.5412935 24.5544403 28.5518742 24.4592145 28.5313742 24.3494403 28.4870677 24.2476016 28.426229 24.1583274 28.3455516 24.082279 28.2509871 24.0181339 28.1451806 23.9725048 28.0248258 23.9420855 27.8945516 23.9321661 27.7543581 23.9275371 27.6029226 23.9222468 27.4475194 23.9222468 27.2874871 23.9275371 27.1215032 23.9374565 26.9608097 23.9520048 26.8001161 23.9672145 26.6447129 23.9877145 26.4932774 24.0075532 26.3477935 24.0326823 26.2175194 24.05715 26.0978258 24.082279 25.9873903 24.1133597 25.8961323 24.1431177 25.8266968 24.1781661 25.7704871 24.2079242 26.1275839 22.9984242 26.2380194 22.9534565 26.3477935 22.9131177 26.4688097 22.8787306 26.5891645 22.8529403 26.7108419 22.8278113 26.8404548 22.8079726 26.970729 22.7874726 27.1062935 22.7775532 27.2464871 22.7676339 27.3926323 22.7623435 27.5427452 22.7570532 27.6988097 22.7570532 27.8595032 22.7570532 28.0248258 22.7570532 28.200729 22.7623435 28.3766323 22.7676339 28.5168258 22.7775532 28.6682613 22.8026823 28.8230032 22.8383919 28.9836968 22.8833597 29.1391 22.9441984 29.2898742 23.0142952 29.4406484 23.0996016 29.5821645 23.1941661 29.7058258 23.3052629 29.8175839 23.4256177 29.9181 23.560521 29.9921645 23.7112952 30.0430839 23.87265 30.0728419 24.0426016 30.0728419 24.2337145 30.0430839 24.4340855"></polygon>
            <polygon id="Fill-27" fill="#B1B2B3" points="28.3263081 25.7741903 28.3210177 25.7490613 28.301179 25.7245935 28.2707597 25.7087226 28.2211629 25.6994645 28.1656145 25.6895452 28.1008081 25.6835935 28.0247597 25.6835935 27.9493726 25.6835935 27.8700177 25.6895452 27.7847113 25.6994645 27.7040339 25.7087226 27.6233565 25.7193032 27.5479694 25.7298839 27.4778726 25.7444323 27.4176952 25.7596419 27.3621468 25.7741903 27.3277597 25.7841097 27.287421 25.7999806 27.2318726 25.8198194 27.1763242 25.8442871 27.1115177 25.8747065 27.04605 25.9104161 26.9759532 25.9448032 26.9104855 25.9851419 26.8403887 26.0354 26.774921 26.0856581 26.7140823 26.1458355 26.6598565 26.2066742 26.6089371 26.2708194 26.57455 26.3422387 26.5447919 26.4215935 26.528921 26.502271 26.5242919 26.6728839 26.5487597 26.8084484 26.599679 26.9089645 26.6644855 26.9843516 26.7398726 27.0346097 26.8258403 27.0643677 26.9065177 27.0795774 26.9865339 27.0842065 27.1366468 27.0795774 27.2722113 27.0643677 27.4031468 27.0438677 27.5188726 27.0141097 27.6180661 26.9790613 27.7139532 26.9340935 27.7992597 26.8891258 27.8746468 26.8335774 27.9401145 26.7833194 27.9989694 26.7231419 28.0498887 26.6682548 28.0902274 26.6080774 28.1246145 26.5472387 28.1563565 26.4877226 28.1808242 26.4321742 28.1947113 26.3766258 28.2357113 26.2318032 28.2707597 26.0651581 28.301179 25.9051258"></polygon>
            <polygon id="Fill-25" fill="#FFFFFF" points="54.4928387 27.1339355 54.2911452 28.2482097 53.0260968 28.2482097 53.0618065 28.0425484 53.0875968 27.8567258 53.1061129 27.7165323 53.1272742 27.6411452 53.0571774 27.7211613 52.9765 27.8018387 52.8812742 27.8772258 52.7754677 27.9473226 52.6551129 28.0174194 52.5294677 28.0775968 52.3985323 28.1377742 52.2629677 28.1880323 52.1168226 28.233 51.9726613 28.2687097 51.8265161 28.299129 51.6764032 28.3189677 51.5309194 28.3288871 51.3854355 28.3335161 51.2445806 28.3189677 51.1083548 28.299129 50.9331129 28.2535 50.7724194 28.2032419 50.6322258 28.1377742 50.5065806 28.0623871 50.3968065 27.9830323 50.2962903 27.8917742 50.2156129 27.7958871 50.1448548 27.6966935 50.0853387 27.5908871 50.0344194 27.4797903 49.9947419 27.3700161 49.9643226 27.2595806 49.9444839 27.1445161 49.9292742 27.028129 49.9193548 26.9176935 49.9193548 26.8072581 49.9339032 26.6115161 49.9643226 26.4263548 50.0152419 26.2504516 50.0800484 26.0798387 50.1600645 25.9191452 50.2506613 25.7736613 50.3558065 25.6334677 50.4768226 25.5071613 50.6024677 25.3920968 50.7426613 25.2862903 50.8888065 25.1910645 51.0382581 25.1103871 51.1989516 25.0416129 51.3655968 24.9854032 51.5355484 24.9404355 51.7114516 24.9100161 51.721371 24.9100161 51.7465 24.9047258 51.7822097 24.9000968 51.8364355 24.8954677 51.8972742 24.8855484 51.967371 24.8802581 52.0420968 24.8703387 52.1280645 24.8604194 52.213371 24.8505 52.2993387 24.8405806 52.3899355 24.834629 52.4692903 24.8247097 52.5499677 24.8200806 52.6246935 24.814129 52.6954516 24.8101613 52.7503387 24.8101613 52.8667258 24.8101613 52.9870806 24.814129 53.0968548 24.8200806 53.2072903 24.8200806 53.2972258 24.8247097 53.3679839 24.83 53.4175806 24.834629 53.4327903 24.834629 53.443371 24.7995806 53.473129 24.7096452 53.4975968 24.6038387 53.5081774 24.5086129 53.4876774 24.3988387 53.443371 24.297 53.3825323 24.2077258 53.3018548 24.1316774 53.2072903 24.0675323 53.1014839 24.0219032 52.981129 23.9914839 52.8508548 23.9815645 52.7106613 23.9769355 52.5592258 23.9716452 52.4038226 23.9716452 52.2437903 23.9769355 52.0778065 23.9868548 51.9171129 24.0014032 51.7564194 24.0166129 51.6010161 24.0371129 51.4495806 24.0569516 51.3040968 24.0820806 51.1738226 24.1065484 51.054129 24.1316774 50.9436935 24.1627581 50.8524355 24.1925161 50.783 24.2275645 50.7267903 24.2573226 51.0838871 23.0478226 51.1943226 23.0028548 51.3040968 22.9625161 51.4251129 22.928129 51.5454677 22.9023387 51.6671452 22.8772097 51.7967581 22.857371 51.9270323 22.836871 52.0625968 22.8269516 52.2027903 22.8170323 52.3489355 22.8117419 52.4990484 22.8064516 52.6551129 22.8064516 52.8158065 22.8064516 52.981129 22.8064516 53.1570323 22.8117419 53.3329355 22.8170323 53.473129 22.8269516 53.6245645 22.8520806 53.7793065 22.8877903 53.94 22.9327581 54.0954032 22.9935968 54.2461774 23.0636935 54.3969516 23.149 54.5384677 23.2435645 54.662129 23.3546613 54.7738871 23.4750161 54.8744032 23.6099194 54.9484677 23.7606935 54.9993871 23.9220484 55.0291452 24.092 55.0291452 24.2831129 54.9993871 24.4834839"></polygon>
            <polygon id="Fill-28" fill="#FFFFFF" points="18.9739435 28.1988113 17.6097016 28.1988113 18.7491048 21.6083919 21.1224758 21.6083919 21.3492984 25.5186016 22.990621 21.6083919 25.4704597 21.6083919 24.3052661 28.1988113 22.9403629 28.1988113 23.8033468 23.2748435 23.749121 23.2748435 21.7050726 28.1988113 20.1649274 28.1988113 20.1543468 27.99315 20.1192984 27.4456016 20.0743306 26.6685855 20.0234113 25.774521 19.9731532 24.8764887 19.9281855 24.0888919 19.8931371 23.5162145 19.8825565 23.2748435 19.8686694 23.2748435 19.83825 23.2748435 19.8078306 23.2748435"></polygon>
            <polygon id="Fill-46" fill="#D2D2D3" points="53.2338742 25.7741903 53.2239548 25.7444323 53.2047774 25.7193032 53.1690677 25.7040935 53.1188097 25.6895452 53.0639226 25.6835935 52.9977935 25.6783032 52.9224065 25.6783032 52.8476806 25.6835935 52.7670032 25.6941742 52.6869871 25.7040935 52.606971 25.7146742 52.5302613 25.7245935 52.4568581 25.7398032 52.390729 25.7490613 52.3252613 25.764271 52.2750032 25.7741903 52.2406161 25.7794806 52.1996161 25.7946903 52.1500194 25.8099 52.094471 25.8297387 52.0290032 25.8588355 51.9694871 25.8899161 51.898729 25.9256258 51.8339226 25.9699323 51.7677935 26.0155613 51.7023258 26.0704484 51.6481 26.1253355 51.5925516 26.1908032 51.5469226 26.2609 51.5118742 26.3362871 51.4827774 26.4169645 51.4675677 26.502271 51.4622774 26.6728839 51.4860839 26.8084484 51.5277452 26.9089645 51.5872613 26.9843516 51.6626484 27.0346097 51.7486161 27.0643677 51.8339226 27.0795774 51.919229 27.0842065 52.0700032 27.0795774 52.2095355 27.0643677 52.340471 27.0392387 52.4568581 27.0041903 52.5666323 26.9638516 52.6618581 26.9188839 52.7517935 26.8679645 52.832471 26.8084484 52.903229 26.7529 52.9620839 26.6880935 53.0182935 26.6279161 53.0639226 26.5617871 53.0983097 26.502271 53.1241 26.4414323 53.1439387 26.3819161 53.1584871 26.3263677 53.1789871 26.1861742 53.2047774 26.0406903 53.2239548 25.8998355"></polygon>
            <polygon id="Fill-47" fill="#FFFFFF" points="63.5739419 27.5120613 63.5858452 27.3956742 63.6242 27.2601097 63.6949581 27.1397548 63.7796032 27.0346097 63.886071 26.9493032 64.0070871 26.8891258 64.1373613 26.8481258 64.2775548 26.8335774 64.4184097 26.8481258 64.5486839 26.8891258 64.6690387 26.9493032 64.7748452 27.0346097 64.8601516 27.1397548 64.9302484 27.2601097 64.9699258 27.3956742 64.9805065 27.5120613 64.8297323 27.5120613 64.8251032 27.4208032 64.7940226 27.3103677 64.7444258 27.2105129 64.6789581 27.1238839 64.5989419 27.0544484 64.5037161 27.0041903 64.3932806 26.9691419 64.2775548 26.9585613 64.1624903 26.9691419 64.0520548 27.0041903 63.956829 27.0544484 63.8754903 27.1238839 63.8106839 27.2105129 63.7610871 27.3103677 63.7306677 27.4208032 63.7200871 27.5120613"></polygon>
            <polygon id="Fill-48" fill="#FFFFFF" points="64.0260661 27.2105129 64.0260661 27.5120613 64.1523726 27.5120613 64.1523726 27.3163194 64.3024855 27.3163194 64.3329048 27.3163194 64.3580339 27.3163194 64.3825016 27.3202871 64.4082919 27.3262387 64.4235016 27.3354968 64.43805 27.3454161 64.4473081 27.3659161 64.4525984 27.3910452 64.4525984 27.4267548 64.4433403 27.4512226 64.433421 27.4664323 64.412921 27.4816419 64.3877919 27.4915613 64.3580339 27.5014806 64.3216629 27.5061097 64.3024855 27.5120613 64.5134371 27.5120613 64.5233565 27.5014806 64.5385661 27.4710613 64.5484855 27.4360129 64.5531145 27.3910452 64.5484855 27.3559968 64.5385661 27.3202871 64.5180661 27.290529 64.4929371 27.2601097 64.4578887 27.240271 64.4182113 27.2250613 64.3626629 27.2151419 64.3024855 27.2105129"></polygon>
            <polygon id="Fill-49" fill="#FFFFFF" points="63.5739419 27.5120613 63.5699742 27.5411581 63.5858452 27.6873032 63.6242 27.8222065 63.6949581 27.9432226 63.7796032 28.0437387 63.886071 28.1283839 64.0070871 28.1945129 64.1373613 28.2341903 64.2775548 28.2494 64.4184097 28.2341903 64.5486839 28.1945129 64.6690387 28.1283839 64.7748452 28.0437387 64.8601516 27.9432226 64.9302484 27.8222065 64.9699258 27.6873032 64.9844742 27.5411581 64.9805065 27.5120613 64.8297323 27.5120613 64.8350226 27.5411581 64.8251032 27.6621742 64.7940226 27.7726097 64.7444258 27.8678355 64.6789581 27.9524806 64.5989419 28.0232387 64.5037161 28.0781258 64.3932806 28.1138355 64.2775548 28.1237548 64.1624903 28.1138355 64.0520548 28.0781258 63.956829 28.0232387 63.8754903 27.9524806 63.8106839 27.8678355 63.7610871 27.7726097 63.7306677 27.6621742 63.7200871 27.5411581 63.7200871 27.5120613"></polygon>
            <polygon id="Fill-50" fill="#FFFFFF" points="64.302221 27.5122597 64.2770919 27.5162274 64.1521081 27.5162274 64.1521081 27.5122597 64.0258016 27.5122597 64.0258016 27.8177758 64.1521081 27.8177758 64.1521081 27.5671468 64.2770919 27.5671468 64.4272048 27.8177758 64.5290435 27.8177758 64.3776081 27.5671468 64.4126565 27.5671468 64.4477048 27.5565661 64.4781242 27.5459855 64.5032532 27.5268081 64.5138339 27.5122597"></polygon>
            <polygon id="Fill-52" fill="#FFFFFF" points="54.8260629 28.1988113 56.2418855 28.1988113 56.7484339 25.3426984 56.7676113 25.2329242 56.7986919 25.1218274 56.82845 25.0113919 56.8687887 24.9009565 56.9190468 24.7911823 56.9785629 24.6853758 57.0440306 24.5848597 57.1247081 24.4896339 57.2153048 24.4043274 57.3151597 24.32365 57.4308855 24.2476016 57.5611597 24.1880855 57.7066435 24.1384887 57.8673371 24.09815 58.042579 24.0677306 58.238321 24.05715 58.3097403 24.05715 58.3494177 24.05715 58.3639661 24.05715 58.5901274 22.7676339 58.4492726 22.7775532 58.3137081 22.7934242 58.1887242 22.8178919 58.0677081 22.8529403 57.9572726 22.8926177 57.8521274 22.9441984 57.7516113 22.9984242 57.6557242 23.0586016 57.56645 23.130021 57.4804823 23.1994565 57.4004661 23.2801339 57.32045 23.36015 57.2444016 23.4454565 57.1696758 23.5406823 57.0942887 23.6306177 57.0248532 23.7317952 57.1749661 22.8231823 55.7637726 22.8231823"></polygon>
            <polygon id="Fill-54" fill="#FFFFFF" points="41.5334 28.1988113 42.9485613 28.1988113 42.9736903 28.1988113 43.455771 25.3426984 43.476271 25.2329242 43.5007387 25.1271177 43.5258677 25.0219726 43.5609161 24.9214565 43.6012548 24.8209403 43.6515129 24.7250532 43.7116903 24.6351177 43.7817871 24.5498113 43.8618032 24.4737629 43.9524 24.3990371 44.0634968 24.3388597 44.1831903 24.2839726 44.3240452 24.2376823 44.4801097 24.1986661 44.6507226 24.1728758 44.8458032 24.1583274 44.8616742 24.1583274 44.8815129 24.1636177 44.9066419 24.1682468 44.931771 24.1682468 44.9562387 24.1728758 44.9774 24.1781661 44.9912871 24.1834565 44.9965774 24.1834565 45.0018677 24.1636177 45.0170774 24.102779 45.0369161 24.0128435 45.0620452 23.9024081 45.0970935 23.7714726 45.1321419 23.6306177 45.177771 23.4904242 45.2220774 23.3495694 45.2630774 23.2543435 45.3133355 23.1584565 45.3635935 23.0638919 45.4131903 22.9785855 45.4581581 22.9038597 45.4932065 22.843021 45.5183355 22.8079726 45.5282548 22.7934242 45.5242871 22.7934242 45.5037871 22.7874726 45.4793194 22.7828435 45.4436097 22.7775532 45.4085613 22.7775532 45.3682226 22.7729242 45.3331742 22.7676339 45.2974645 22.7676339 45.1420613 22.7775532 45.0018677 22.7934242 44.8709323 22.8178919 44.7512387 22.8483113 44.6355129 22.8879887 44.5297065 22.9389081 44.4344806 22.9885048 44.3438839 23.0486823 44.2592387 23.11415 44.1785613 23.1895371 44.1031742 23.2649242 44.0284484 23.3495694 43.9524 23.4355371 43.8823032 23.5314242 43.8075774 23.6306177 43.731529 23.7317952 43.9120613 22.8231823 42.471771 22.8231823"></polygon>
            <path d="M64.0262645,33.5900468 L64.0262645,33.4802065 L64.0258016,33.3049645 L64.302221,33.3049645 L64.3630597,33.3049645 L64.4186081,33.3142226 L64.4582855,33.3234806 L64.4933339,33.3433194 L64.5184629,33.3691097 L64.5383016,33.399529 L64.5488823,33.4345774 L64.5535113,33.4802065 L64.5486839,33.514329 L64.5387645,33.5447484 L64.5235548,33.5705387 L64.5037161,33.5903774 L64.4777274,33.6105468 L64.4473081,33.6204661 L64.412921,33.6297242 L64.3778726,33.6297242 L64.5286468,33.8816758 L64.4274694,33.8816758 L64.2773565,33.6297242 L64.1523726,33.6297242 L64.1523726,33.8816758 L64.0260661,33.8816758 L64.0260661,33.5900468 Z M63.7201532,33.5899145 L63.7201532,33.6051242 L63.7307339,33.7261403 L63.7611532,33.8359145 L63.81075,33.9311403 L63.8755565,34.0157855 L63.9568952,34.0872048 L64.052121,34.1420919 L64.1625565,34.1778016 L64.2769597,34.187721 L64.3933468,34.1778016 L64.5037823,34.1420919 L64.5990081,34.0872048 L64.6790242,34.0157855 L64.7438306,33.9311403 L64.7940887,33.8359145 L64.8251694,33.7261403 L64.8350887,33.6051242 L64.8350887,33.5903774 L64.8253677,33.4839097 L64.8253677,33.4800081 L64.7946839,33.3748629 L64.7437645,33.2796371 L64.6789581,33.1936694 L64.5989419,33.1235726 L64.5037161,33.0680242 L64.3932806,33.0329758 L64.2775548,33.0230565 L64.1624903,33.0329758 L64.0520548,33.0680242 L63.9561677,33.1235726 L63.8754903,33.1936694 L63.8106839,33.2796371 L63.7604258,33.3748629 L63.7300256,33.4799419 L63.7304694,33.4839097 L63.7199347,33.5899145 Z M63.5705008,33.5899145 L63.5856468,33.4799419 L63.5858452,33.4595081 L63.6235387,33.3292339 L63.6942968,33.2141694 L63.7796032,33.1136532 L63.8854097,33.0329758 L64.0070871,32.9721371 L64.1373613,32.93775 L64.2775548,32.9225403 L64.4184097,32.93775 L64.5486839,32.9721371 L64.6697,33.0329758 L64.7755065,33.1136532 L64.8608129,33.2141694 L64.9309097,33.3292339 L64.9699258,33.4595081 L64.9699258,33.4799419 L64.9847387,33.5903774 L64.9845403,33.6051242 L64.9699919,33.7506081 L64.9303145,33.8861726 L64.8602177,34.0065274 L64.7749113,34.1123339 L64.6691048,34.1976403 L64.54875,34.2571565 L64.4184758,34.2981565 L64.2769597,34.3127048 L64.1374274,34.2981565 L64.0071532,34.2571565 L63.8861371,34.1976403 L63.7796694,34.1123339 L63.6950242,34.0065274 L63.6242661,33.8861726 L63.5859113,33.7506081 L63.5700403,33.6051242 L63.5700403,33.5899145 Z M64.4529952,33.4799419 L64.4529952,33.4544161 L64.4477048,33.4292871 L64.4377855,33.4087871 L64.4238984,33.399529 L64.4080274,33.3896097 L64.3828984,33.3843194 L64.3584306,33.3796903 L64.3326403,33.3796903 L64.302221,33.3796903 L64.1521081,33.3796903 L64.1521081,33.4799419 L64.152571,33.5797968 L64.2768935,33.5797968 L64.3218613,33.5705387 L64.3582323,33.5659097 L64.3879903,33.5546677 L64.4131194,33.5447484 L64.4329581,33.5302 L64.4435387,33.514329 L64.4527968,33.4905226 L64.4527968,33.4799419 Z" id="Combined-Shape" fill="#CBCCCD"></path>
            <path d="M40.3283306,24.8856145 L38.4945726,24.8856145 L38.4965565,24.8816468 L38.49325,24.8809855 L38.5058145,24.8108887 L38.5263145,24.7050823 L38.5560726,24.6052274 L38.591121,24.5047113 L38.63675,24.4147758 L38.682379,24.3288081 L38.7366048,24.2481306 L38.7974435,24.1727435 L38.8629113,24.1026468 L38.9270565,24.0431306 L39.0037661,23.9875823 L39.0778306,23.9419532 L39.1637984,23.9022758 L39.2491048,23.8725177 L39.3344113,23.8520177 L39.4243468,23.8368081 L39.5202339,23.8315177 L39.6108306,23.8420984 L39.6961371,23.8573081 L39.7761532,23.8778081 L39.8561694,23.9069048 L39.9315565,23.9472435 L40.0069435,23.9922113 L40.0730726,24.0431306 L40.1325887,24.1026468 L40.1828468,24.1727435 L40.2337661,24.2481306 L40.2681532,24.3340984 L40.3032016,24.4299855 L40.322379,24.529179 L40.3329597,24.6402758 L40.3389113,24.7606306 L40.3283306,24.8856145 Z M41.6892661,24.4233726 L41.6489274,24.1238081 L41.5781694,23.8573081 L41.4783145,23.6265177 L41.3520081,23.4254855 L41.2018952,23.2542113 L41.0365726,23.1140177 L40.8560403,22.9936629 L40.6596371,22.9037274 L40.4592661,22.827679 L40.2536048,22.777421 L40.0472823,22.7423726 L39.841621,22.7225339 L39.645879,22.7172435 L39.2385242,22.7377435 L38.878121,22.797921 L38.5507823,22.8878565 L38.2604758,23.0141629 L38.0091855,23.1642758 L37.7876532,23.3348887 L37.5919113,23.5253403 L37.431879,23.7270339 L37.2910242,23.9373242 L37.1759597,24.1581952 L37.0860242,24.3744371 L37.0106371,24.5893565 L36.95575,24.8009694 L36.91475,24.99605 L36.8856532,25.1818726 L36.8651532,25.3425661 L36.8400242,25.7538887 L36.8552339,26.1248726 L36.910121,26.4621306 L36.9947661,26.7577274 L37.1164435,27.0242274 L37.2619274,27.2550177 L37.431879,27.4613403 L37.627621,27.6312919 L37.8385726,27.7774371 L38.0653952,27.902421 L38.3008145,27.9989694 L38.5461532,28.0730339 L38.7974435,28.1338726 L39.0493952,28.1695823 L39.2993629,28.1947113 L39.5453629,28.198679 L39.7106855,28.198679 L39.8674113,28.1947113 L40.0016532,28.1947113 L40.1325887,28.1887597 L40.2483145,28.1788403 L40.3534597,28.1695823 L40.4539758,28.1590016 L40.5439113,28.1437919 L40.6292177,28.127921 L40.7092339,28.1087435 L40.7905726,28.0836145 L40.8659597,28.0591468 L40.9406855,28.0280661 L41.0213629,27.9989694 L41.1007177,27.9579694 L41.1820565,27.9182919 L41.3824274,26.6830016 L41.2369435,26.7689694 L41.0960887,26.8483242 L40.9512661,26.9091629 L40.8104113,26.96405 L40.6748468,27.0090177 L40.5346532,27.0387758 L40.3984274,27.0645661 L40.2628629,27.0844048 L40.1272984,27.0949855 L39.9976855,27.0996145 L39.8614597,27.0996145 L39.7311855,27.0949855 L39.6009113,27.0844048 L39.4699758,27.0698565 L39.3443306,27.0539855 L39.2140565,27.0341468 L39.1135403,27.0143081 L39.0130242,26.9785984 L38.9131694,26.9342919 L38.8219113,26.8787435 L38.7326371,26.8185661 L38.6512984,26.7445016 L38.5765726,26.6684532 L38.5058145,26.5824855 L38.4462984,26.4978403 L38.3914113,26.4026145 L38.3504113,26.3113565 L38.3153629,26.2161306 L38.2955242,26.1202435 L38.2856048,26.0250177 L38.2895726,25.9403726 L38.3021371,25.8749048 L41.5583306,25.8749048 L41.5834597,25.5687274 L41.6588468,25.1468242 L41.6945565,24.7645984 L41.6892661,24.4233726 Z" id="Fill-63" fill="#FFFFFF"></path>
          </g>
        </g>
      </g>
    </g>
  </g>
</svg>
