<?xml version="1.0" encoding="UTF-8"?>
<svg xmlns="http://www.w3.org/2000/svg" xmlns:xlink="http://www.w3.org/1999/xlink" width="81px" height="50px" viewBox="0 0 81 50" version="1.1">
  <title>paypal</title>
  <desc>Created with Sketch.</desc>
  <g id="Pricing-tiles" stroke="none" stroke-width="1" fill="none" fill-rule="evenodd">
    <g id="TEST_-Pricing-page-(Desktop-HD)" transform="translate(-554.000000, -3856.000000)">
      <g id="Group-4" transform="translate(0.000000, 3560.000000)">
        <g id="Group">
          <g id="paypal" transform="translate(554.000000, 296.000000)">
            <path d="M81,47 C81,48.6081424 79.579498,50 78,50 L3,50 C1.41939742,50 5.55111512e-17,48.6083053 5.55111512e-17,47 L5.55111512e-17,3 C5.55111512e-17,1.3906075 1.41922632,-2.77555756e-17 3,-2.77555756e-17 L78,-2.77555756e-17 C79.5796694,-2.77555756e-17 81,1.39077019 81,3 L81,47 Z" id="Fill-1" fill="#FFFFFF" fill-rule="nonzero"></path>
            <path d="M41.0491052,21.0714573 C40.6850564,21.0714573 40.2050275,21.3598129 39.9782218,21.7084782 C39.9782218,21.7084782 37.5329737,25.7963435 37.2932814,26.2040621 C37.1611929,26.4239411 37.0303931,26.284475 37.0078414,26.2028056 C36.9904443,26.103546 36.2513931,21.7354919 36.2513931,21.7354919 C36.1682739,21.3843137 35.7900498,21.0821371 35.3190415,21.0840218 L33.7945469,21.0859065 C33.4259878,21.0859065 33.1978935,21.3723774 33.2810126,21.7197863 C33.2810126,21.7197863 34.4446801,28.1609855 34.6727744,29.6750097 C34.7861772,30.5124347 34.6598877,30.6619524 34.6598877,30.6619524 L33.1502127,33.2307677 C32.9279175,33.5775484 33.0496966,33.8640194 33.4150341,33.8640194 L35.1817983,33.8627629 C35.5471358,33.8627629 36.0323194,33.5794331 36.2513931,33.2301395 L43.0471854,22.0207065 C43.0471854,22.0207065 43.6973186,21.0639185 43.0987322,21.0714573 C42.68958,21.0783677 41.0491052,21.0714573 41.0491052,21.0714573" id="Fill-4" fill="#747678"></path>
            <path d="M23.2765649,20.0237023 C23.064579,19.6203813 22.7469222,19.2930756 22.3409917,19.0461829 C21.9202415,18.7917515 21.4311919,18.6183611 20.8603118,18.512191 C20.2868544,18.4123031 19.6148139,18.3639297 18.8454789,18.356391 L15.2835997,18.3595321 C14.9131075,18.3639297 14.5509917,18.6460031 14.4659396,18.9927837 L12.0657949,29.1744394 C11.9807428,29.5218482 12.2139917,29.8095756 12.5812622,29.8095756 L14.2874591,29.8095756 C14.6560182,29.8095756 15.0232887,29.5287587 15.1044748,29.1744394 L15.6933962,26.702999 C15.772005,26.3574748 16.1373424,26.0710039 16.5059016,26.0710039 L16.9943069,26.0710039 C19.0806609,26.0691192 20.700517,25.6532337 21.8622514,24.8202063 C23.0246303,23.9890635 23.6051754,22.8871555 23.6019537,21.5232773 C23.6051754,20.9245781 23.5001489,20.4238821 23.2765649,20.0237023 M19.5929065,23.3501579 C19.0774392,23.7170418 18.36545,23.9011119 17.4395418,23.9011119 L17.0213689,23.9011119 C16.6528098,23.9011119 16.4195608,23.6158974 16.5013912,23.2659756 L17.0149256,21.1073918 C17.0916013,20.7599829 17.4620935,20.470999 17.8293639,20.4747684 L18.3880017,20.470999 C19.0407122,20.470999 19.5355608,20.5796821 19.8706146,20.79642 C20.201158,21.0068756 20.3667519,21.3392071 20.3622415,21.7871321 C20.3719065,22.4605902 20.1096625,22.9820176 19.5929065,23.3501579" id="Fill-6" fill="#747678"></path>
            <path d="M28.4830427,27.7272584 C28.2704124,27.8573011 28.0474728,27.9684971 27.8129352,28.0633592 C27.4985001,28.1864915 27.1982404,28.2518269 26.921821,28.2518269 C26.4991378,28.2518269 26.171816,28.1934019 25.9514538,28.0690132 C25.7310915,27.9502785 25.6151113,27.7435923 25.6176887,27.4489544 C25.6176887,27.1071995 25.6995191,26.8439729 25.867046,26.6360302 C26.0365059,26.4356261 26.2852189,26.2754285 26.5932106,26.1560656 C26.9031353,26.0536648 27.2826481,25.9713673 27.720151,25.9104294 C28.1093289,25.862056 28.8786639,25.7766173 28.9759583,25.7753608 C29.0751858,25.7747326 29.1409079,25.7219616 29.0958045,25.9770213 C29.0784074,26.0888455 28.8548235,26.977785 28.7530187,27.3817342 C28.722735,27.5042382 28.5577854,27.6795132 28.4830427,27.7272584 M31.5011039,21.4776681 C30.8535481,21.1258616 29.8412991,20.9474455 28.4540476,20.9474455 C27.7678318,20.9474455 27.0783942,21.0008447 26.387668,21.1051302 C25.8779997,21.1817737 25.8290303,21.1943382 25.5113735,21.2609302 C24.8631734,21.3991398 24.7626572,22.0323915 24.7626572,22.0323915 L24.5551816,22.8673035 C24.4366242,23.4019237 24.7497706,23.3799358 24.8870137,23.3378447 C25.1711651,23.2549189 25.3245166,23.1732495 25.90184,23.0450915 C26.4546787,22.9219592 27.0384455,22.8314947 27.5030104,22.8346358 C28.1860046,22.8346358 28.7066266,22.9068818 29.0513454,23.0476044 C29.3973529,23.1946092 29.5668127,23.4452713 29.5668127,23.8027318 C29.5700344,23.8875423 29.5700344,23.9692116 29.5397507,24.0376882 C29.5107557,24.1042802 29.4566316,24.1671027 29.2923264,24.1878342 C28.3200261,24.245631 27.6209236,24.3323261 26.7768458,24.451689 C25.9450104,24.5653979 25.2188458,24.7614044 24.6105944,25.0321697 C23.9611055,25.3129866 23.4759219,25.6880374 23.1440898,26.1629761 C22.8167681,26.6404277 22.6543959,27.2190237 22.6524629,27.8993923 C22.6524629,28.5439519 22.8902222,29.0685205 23.3502768,29.476239 C23.8141974,29.8789318 24.4179385,30.0780794 25.1486134,30.0780794 C25.6054463,30.0749382 25.9630518,30.0422705 26.2194968,29.9800761 C26.4733644,29.9172535 26.7510725,29.8286737 27.0416672,29.7061697 C27.2607408,29.6163334 27.4965671,29.4875471 27.7459244,29.3260931 C27.9946374,29.164639 28.1673189,29.0496737 28.3889699,28.9083229 L28.3954132,28.9215156 L28.3329128,29.1891398 C28.3329128,29.1916527 28.3296911,29.1929092 28.3296911,29.1960503 L28.3329128,29.2010761 C28.2594587,29.5239842 28.4592023,29.7916084 28.7865241,29.8223915 L28.7910344,29.8286737 L28.8200294,29.8286737 L28.8213181,29.8324431 C29.0384587,29.8324431 29.785242,29.8305584 30.1351155,29.8286737 L30.3773851,29.8286737 C30.3934935,29.8286737 30.3967151,29.8236479 30.4018698,29.8198785 C30.7369236,29.7784156 31.055869,29.515189 31.1325447,29.1960503 L32.3793313,23.9509931 C32.4063934,23.8291173 32.4283007,23.68651 32.4431204,23.5219148 C32.4585844,23.3560632 32.4766258,23.2203665 32.4714711,23.1223632 C32.4746928,22.3798003 32.1473711,21.8313592 31.5011039,21.4776681" id="Fill-8" fill="#747678"></path>
            <path d="M59.4680415,27.7346715 C59.2573443,27.864086 59.0324716,27.9759102 58.7992227,28.0720287 C58.4834989,28.195161 58.1845279,28.2604965 57.9087529,28.2604965 C57.4854253,28.2604965 57.1568149,28.200815 56.9383856,28.0764263 C56.7180233,27.9576916 56.6013988,27.7516335 56.6065535,27.4569956 C56.6065535,27.1164973 56.6858066,26.851386 56.8533335,26.6440715 C57.0215047,26.4442956 57.2715064,26.2840981 57.5814311,26.1641069 C57.8894228,26.0617061 58.267647,25.9787803 58.7051499,25.9184706 C59.0943277,25.8707255 59.8636627,25.7840303 59.9628902,25.7834021 C60.0601846,25.7834021 60.1259067,25.7300029 60.0827363,25.9850626 C60.0621176,26.0962585 59.8398223,26.9858263 59.7393062,27.3891473 C59.7090225,27.5110231 59.5447173,27.6875545 59.4680415,27.7346715 M62.4861027,21.4863376 C61.8398356,21.1345311 60.8262979,20.956115 59.4390465,20.956115 C58.7528306,20.956115 58.0653261,21.008886 57.3739555,21.1144279 C56.8649315,21.1891868 56.8120961,21.2023795 56.499594,21.2683432 C55.8481722,21.4065529 55.7489447,22.0398045 55.7489447,22.0398045 L55.5401805,22.8759731 C55.423556,23.409965 55.7347694,23.3879771 55.8739456,23.3465142 C56.1574526,23.2629602 56.3108041,23.1794061 56.8887719,23.0518763 C57.4409663,22.9306287 58.0253773,22.8382795 58.4899423,22.8420489 C59.1729365,22.8420489 59.6916255,22.9155513 60.0376329,23.0556456 C60.3842847,23.2032787 60.5531002,23.4526844 60.5531002,23.8101448 C60.5550333,23.8955835 60.5563219,23.9753682 60.5260382,24.0463577 C60.4976875,24.1116932 60.4435634,24.175144 60.2805469,24.1965037 C59.305025,24.2524158 58.6046337,24.339111 57.7618447,24.4597303 C56.9319423,24.5740674 56.2038447,24.7688174 55.5955932,25.0395827 C54.9480374,25.3197715 54.4641424,25.6948223 54.1290887,26.1703892 C53.8036999,26.6478408 53.6406834,27.2264368 53.6393947,27.9074335 C53.6393947,28.551365 53.877154,29.0765618 54.3365643,29.4842803 C54.8011292,29.8869731 55.404226,30.0854924 56.1355452,30.0854924 C56.5917338,30.0823513 56.9493393,30.0503118 57.2064286,29.9874892 C57.4583633,29.9252948 57.7360713,29.8373432 58.028599,29.714211 C58.2457396,29.6243747 58.4815659,29.4962166 58.7309232,29.3341344 C58.9796362,29.1726803 59.1523178,29.0570868 59.3739687,28.915736 L59.3817007,28.9289287 L59.3198447,29.1978094 C59.3198447,29.2003223 59.316623,29.2015787 59.316623,29.2034634 L59.3179117,29.2084892 C59.2463906,29.5313973 59.4454898,29.7990215 59.7728116,29.8323174 L59.7779663,29.8373432 L59.8050283,29.8373432 L59.806317,29.8385997 C60.0253906,29.8385997 60.7702409,29.8385997 61.1201143,29.8373432 L61.364317,29.8373432 C61.3804253,29.8373432 61.381714,29.8323174 61.3868687,29.8279198 C61.7232111,29.7883416 62.0428008,29.5226021 62.1194766,29.2034634 L63.3643302,23.9602908 C63.3946139,23.8371585 63.4165213,23.6945513 63.4294079,23.5299561 C63.4455163,23.3647327 63.4629133,23.2284077 63.458403,23.1297763 C63.4616246,22.3878416 63.1343029,21.8387723 62.4861027,21.4863376" id="Fill-10" fill="#747678"></path>
            <path d="M54.2567957,20.060265 C54.0428768,19.6575723 53.7219983,19.3321513 53.3167122,19.0796045 C52.899828,18.8270577 52.4049793,18.6511545 51.8321663,18.5487537 C51.2670852,18.4513787 50.593756,18.3960948 49.8257097,18.3948384 L46.2573871,18.3960948 C45.8881836,18.4023771 45.5280008,18.6844505 45.4429487,19.0306029 L43.0440926,29.213515 C42.9545302,29.5602956 43.1929338,29.8492795 43.5531166,29.8467666 L45.2676898,29.8442537 C45.6298056,29.8467666 46.0002978,29.5602956 46.0866385,29.213515 L46.665895,26.7433311 C46.7470811,26.3965505 47.1175732,26.1063102 47.4861323,26.111336 L47.973249,26.111336 C50.0608916,26.111336 51.6820364,25.6935658 52.8411935,24.8599102 C53.9997064,24.0218569 54.5808958,22.9243465 54.5808958,21.5585835 C54.5776741,20.9623973 54.4739363,20.4598166 54.2567957,20.060265 M50.5731373,23.3911182 C50.0608916,23.7542327 49.3437477,23.9364182 48.4217055,23.9364182 L47.9970893,23.9364182 C47.6298189,23.9401876 47.3920596,23.6505755 47.479689,23.3031666 L47.990646,21.1420698 C48.0673218,20.7996868 48.4403912,20.5088182 48.8031514,20.5125876 L49.3630778,20.5088182 C50.0190099,20.5125876 50.5093482,20.619386 50.8456907,20.8310981 C51.1781671,21.0465795 51.3405393,21.3795392 51.3424723,21.8236948 C51.343761,22.4996658 51.0866716,23.020465 50.5731373,23.3911182" id="Fill-12" fill="#747678"></path>
            <path d="M68.8898178,19.110953 L68.8853074,19.1096965 C68.9632719,18.7654288 68.7358219,18.4783296 68.3711288,18.4783296 L66.8434125,18.4783296 C66.8427682,18.4783296 66.8421238,18.4789578 66.8414795,18.4789578 L66.8401908,18.4783296 C66.4980494,18.4783296 66.1565523,18.7315046 66.0495928,19.0550409 C66.0425051,19.0745159 66.0283298,19.091478 66.0231751,19.1115812 C66.0231751,19.1115812 65.9928914,19.247278 65.9407003,19.4797215 L63.8292173,28.8132723 C63.7789592,29.0274973 63.7460982,29.1675917 63.7357888,29.2034006 L63.7409435,29.2096828 C63.6700667,29.530078 63.8678773,29.788907 64.1906888,29.8234594 L64.2003538,29.8372804 L65.7834828,29.8372804 C66.1294902,29.8372804 66.474209,29.5790796 66.5792355,29.2549151 C66.5850345,29.2366965 66.5979212,29.2216191 66.6024315,29.2034006 L68.8898178,19.110953 Z" id="Fill-14" fill="#747678"></path>
            <path d="M70.6886055,20.5330049 C70.6357701,20.5468259 70.5784243,20.558134 70.5165682,20.5656727 C70.4540678,20.575096 70.3980108,20.5794936 70.35033,20.5794936 C70.1808701,20.5794936 70.0520033,20.5348896 69.9637295,20.446938 C69.8761001,20.3577299 69.831641,20.2144944 69.831641,20.0191162 L69.831641,19.1578186 L69.6428511,19.1578186 L69.6428511,18.9285162 L69.831641,18.9285162 L69.831641,18.4642573 L70.1106377,18.4642573 L70.1106377,18.9285162 L70.6886055,18.9285162 L70.6886055,19.1578186 L70.1106377,19.1578186 L70.1106377,19.895984 C70.1106377,19.9807944 70.1138594,20.0467581 70.1170811,20.0938751 C70.1222357,20.1428767 70.1344781,20.1868525 70.1589628,20.2289436 C70.1795815,20.2678936 70.2098652,20.2955356 70.2478809,20.3137541 C70.2878296,20.3313444 70.3451754,20.3407678 70.4237841,20.3407678 C70.4701762,20.3407678 70.5165682,20.3338573 70.5674706,20.3206646 C70.6151514,20.3087283 70.6505897,20.296792 70.6724971,20.2879969 L70.6886055,20.2879969 L70.6886055,20.5330049 Z" id="Fill-16" fill="#747678"></path>
            <path d="M73.4498351,20.5481452 L73.1708384,20.5481452 L73.1708384,19.6259097 C73.1708384,19.5574331 73.1676167,19.4895847 73.1611734,19.4242492 C73.152797,19.3595419 73.1399103,19.3080274 73.1192916,19.2690774 C73.0954513,19.2276145 73.0632346,19.1962032 73.0207085,19.1754718 C72.9775381,19.1541121 72.9182594,19.142804 72.8370733,19.142804 C72.7584645,19.142804 72.6805001,19.162279 72.6006026,19.201229 C72.5226382,19.2382944 72.4459624,19.287296 72.366065,19.345721 C72.3692867,19.3683371 72.3725084,19.3940944 72.373797,19.423621 C72.37573,19.4531476 72.3770187,19.482046 72.3770187,19.5103161 L72.3770187,20.5481452 L72.098022,20.5481452 L72.098022,19.6259097 C72.098022,19.5549202 72.0948003,19.4858153 72.088357,19.4223645 C72.0819136,19.3576573 72.0677383,19.306771 72.0484083,19.2684492 C72.0226349,19.2263581 71.9923512,19.195575 71.9498251,19.1742153 C71.9066548,19.1541121 71.845443,19.142804 71.7642569,19.142804 C71.6875811,19.142804 71.6128384,19.1610226 71.5342296,19.1987161 C71.4581982,19.234525 71.3815224,19.2816419 71.3048467,19.3381823 L71.3048467,20.5481452 L71.0252056,20.5481452 L71.0252056,18.928579 L71.3048467,18.928579 L71.3048467,19.1076234 C71.3924761,19.0385185 71.4801055,18.9819782 71.5664463,18.9436565 C71.6527871,18.90345 71.7449269,18.8833468 71.8428657,18.8833468 C71.9556242,18.8833468 72.0516299,18.9065911 72.1315274,18.9530798 C72.2094918,18.9995685 72.2687706,19.0636476 72.3067863,19.1465734 C72.4201891,19.053596 72.5226382,18.9863758 72.616711,18.9455411 C72.7094951,18.9047065 72.8100112,18.8833468 72.9150377,18.8833468 C73.0973843,18.8833468 73.2326945,18.9380024 73.3190352,19.045429 C73.4066647,19.1534839 73.4498351,19.3048863 73.4498351,19.4964952 L73.4498351,20.5481452 Z" id="Fill-18" fill="#747678"></path>
          </g>
        </g>
      </g>
    </g>
  </g>
</svg>
