<?xml version="1.0" encoding="UTF-8"?>
<svg xmlns="http://www.w3.org/2000/svg" width="80" height="80" viewBox="0 0 80 80" fill="none">
  <path d="M40 49.527C33.7088 51.2561 27.4277 48.095 26 42.4812C32.3031 40.734 38.5842 43.8951 40 49.527Z" fill="#3DBC62"></path>
  <path d="M40 39.527C33.7088 41.2561 27.4277 38.095 26 32.4812C32.3031 30.734 38.5842 33.8951 40 39.527Z" fill="#3DBC62"></path>
  <path d="M40 49.527C46.2912 51.2561 52.5723 48.095 54 42.4812C47.6969 40.734 41.4158 43.8951 40 49.527Z" fill="#3DBC62"></path>
  <path d="M40 39.527C46.2912 41.2561 52.5723 38.095 54 32.4812C47.6969 30.734 41.4158 33.8951 40 39.527Z" fill="#3DBC62"></path>
  <path d="M40 59.527C33.7088 61.2561 27.4277 58.095 26 52.4812C32.3031 50.734 38.5842 53.8951 40 59.527Z" fill="#3DBC62"></path>
  <path d="M40 59.527C46.2912 61.2561 52.5723 58.095 54 52.4812C47.6969 50.734 41.4158 53.8951 40 59.527Z" fill="#3DBC62"></path>
  <path d="M39 30H41V64H39V30Z" fill="#017737"></path>
  <path d="M52 19.2921C52 22.3972 50.7357 25.3752 48.4853 27.5708C46.2348 29.7665 43.1826 31 40 31C36.8174 31 33.7652 29.7665 31.5147 27.5708C29.2643 25.3752 28 22.3972 28 19.2921V18.3474C28 17.5165 29.1216 17.2134 29.5598 17.9259C30.2122 18.9867 31.7878 18.9867 32.4402 17.9259L32.5 17.8286C33.1794 16.7238 34.8206 16.7238 35.5 17.8286C36.1794 18.9334 37.8206 18.9334 38.5 17.8286C39.1794 16.7238 40.8206 16.7238 41.5 17.8286C42.1794 18.9334 43.8206 18.9334 44.5 17.8286C45.1794 16.7238 46.8206 16.7238 47.5 17.8286L47.5598 17.9259C48.2122 18.9867 49.7878 18.9867 50.4402 17.9259C50.8784 17.2134 52 17.5165 52 18.3474V19.2921Z" fill="#6861F2"></path>
</svg>
