<?xml version="1.0" encoding="UTF-8"?>
<svg xmlns="http://www.w3.org/2000/svg" width="80" height="80" viewBox="0 0 80 80" fill="none">
  <path d="M40 59.2905C31.9113 61.8842 23.8356 57.1425 22 48.7218C30.104 46.1011 38.1797 50.8427 40 59.2905Z" fill="#3DBC62"></path>
  <path d="M40 47.2905C31.9113 49.8842 23.8356 45.1425 22 36.7218C30.104 34.1011 38.1797 38.8427 40 47.2905Z" fill="#3DBC62"></path>
  <path d="M40 59.2905C48.0887 61.8842 56.1644 57.1425 58 48.7218C49.896 46.1011 41.8203 50.8427 40 59.2905Z" fill="#3DBC62"></path>
  <path d="M40 47.2905C48.0887 49.8842 56.1644 45.1425 58 36.7218C49.896 34.1011 41.8203 38.8427 40 47.2905Z" fill="#3DBC62"></path>
  <path d="M39 30H41V64H39V30Z" fill="#017737"></path>
  <path d="M52 24.2921C52 27.3972 50.7357 30.3752 48.4853 32.5708C46.2348 34.7665 43.1826 36 40 36C36.8174 36 33.7652 34.7665 31.5147 32.5708C29.2643 30.3752 28 27.3972 28 24.2921V23.3474C28 22.5165 29.1216 22.2134 29.5598 22.9259C30.2122 23.9867 31.7878 23.9867 32.4402 22.9259L32.5 22.8286C33.1794 21.7238 34.8206 21.7238 35.5 22.8286C36.1794 23.9334 37.8206 23.9334 38.5 22.8286C39.1794 21.7238 40.8206 21.7238 41.5 22.8286C42.1794 23.9334 43.8206 23.9334 44.5 22.8286C45.1794 21.7238 46.8206 21.7238 47.5 22.8286L47.5598 22.9259C48.2122 23.9867 49.7878 23.9867 50.4402 22.9259C50.8784 22.2134 52 22.5165 52 23.3474V24.2921Z" fill="#6861F2"></path>
</svg>
