<?xml version="1.0" encoding="UTF-8"?>
<svg xmlns="http://www.w3.org/2000/svg" width="732" height="486" viewBox="0 0 732 486" fill="none">
  <g clip-path="url(#clip0_5140_32565)">
    <rect width="732" height="486" fill="#AEEAB4"></rect>
    <rect x="64" y="59" width="873.124" height="585.767" rx="19.2686" fill="white"></rect>
    <rect x="64" y="233.381" width="646.463" height="81.8917" fill="#F6F7F8"></rect>
    <rect width="186.235" height="11.0522" rx="5.5261" transform="matrix(1 0 0 -1 277.414 377.896)" fill="#88D5A4"></rect>
    <rect width="217.241" height="11.0522" rx="5.5261" transform="matrix(1 0 0 -1 277.613 279.626)" fill="#017737"></rect>
    <rect x="645.395" y="279.626" width="135.014" height="11.0522" rx="5.5261" transform="rotate(-180 645.395 279.626)" fill="#017737"></rect>
    <rect width="186.235" height="11.0522" rx="5.5261" transform="matrix(1 0 0 -1 277.613 475.203)" fill="#E5EBE9"></rect>
    <path d="M135.051 219.011V274.098H166.908" stroke="#B6BBC3" stroke-width="3.68407" stroke-linecap="round"></path>
    <path d="M135.051 224.28V372.277H165.93" stroke="#B6BBC3" stroke-width="3.68407" stroke-linecap="round"></path>
    <path d="M135.051 230.061V470.52H166.576" stroke="#B6BBC3" stroke-width="3.68407" stroke-linecap="round"></path>
    <path fill-rule="evenodd" clip-rule="evenodd" d="M216.623 400.146C231.883 400.146 244.253 387.775 244.253 372.515C244.253 357.255 231.883 344.885 216.623 344.885C201.363 344.885 188.992 357.255 188.992 372.515C188.992 387.775 201.363 400.146 216.623 400.146Z" fill="#88D5A4"></path>
    <path d="M202.714 375.173L210.986 383.336C210.986 383.336 223.155 368.574 233.191 361.993" stroke="white" stroke-width="5.5261" stroke-linecap="round" stroke-linejoin="round"></path>
    <path fill-rule="evenodd" clip-rule="evenodd" d="M216.623 301.876C231.883 301.876 244.253 289.505 244.253 274.245C244.253 258.985 231.883 246.615 216.623 246.615C201.363 246.615 188.992 258.985 188.992 274.245C188.992 289.505 201.363 301.876 216.623 301.876Z" fill="#017737"></path>
    <path d="M202.71 276.903L210.982 285.066C210.982 285.066 223.151 270.304 233.188 263.723" stroke="white" stroke-width="5.5261" stroke-linecap="round" stroke-linejoin="round"></path>
    <path fill-rule="evenodd" clip-rule="evenodd" d="M216.822 498.416C232.082 498.416 244.452 486.045 244.452 470.785C244.452 455.526 232.082 443.155 216.822 443.155C201.562 443.155 189.191 455.526 189.191 470.785C189.191 486.045 201.562 498.416 216.822 498.416Z" stroke="#E5EBE9" stroke-width="3.68407" stroke-linecap="round" stroke-linejoin="round"></path>
    <rect x="102.914" y="106.208" width="104.414" height="104.414" rx="2" fill="#827DF4"></rect>
    <path d="M140.009 123.147C140.009 121.118 141.654 119.472 143.683 119.472H165.731C167.761 119.472 169.406 121.118 169.406 123.147V130.496C169.406 132.526 167.761 134.171 165.731 134.171H143.683C141.654 134.171 140.009 132.526 140.009 130.496V123.147ZM135.415 123.147H130.822C126.763 123.147 123.473 126.437 123.473 130.496V185.616C123.473 189.675 126.763 192.966 130.822 192.966H178.593C182.652 192.966 185.942 189.675 185.942 185.616V130.496C185.942 126.437 182.652 123.147 178.593 123.147H173.999V130.496C173.999 134.555 170.709 137.846 166.65 137.846H142.765C138.706 137.846 135.415 134.555 135.415 130.496V123.147ZM145.186 158.864L151.033 164.71L167.273 148.47C168.349 147.394 170.094 147.394 171.17 148.47C172.246 149.546 172.246 151.291 171.17 152.368L152.982 170.556C152.465 171.073 151.764 171.364 151.033 171.364C150.302 171.364 149.601 171.073 149.084 170.556L141.289 162.761C140.213 161.685 140.213 159.94 141.289 158.864C142.365 157.787 144.11 157.787 145.186 158.864Z" fill="white"></path>
    <path fill-rule="evenodd" clip-rule="evenodd" d="M227.081 405.593V386.012C227.081 383.039 229.491 380.629 232.464 380.629C235.438 380.629 237.848 383.039 237.848 386.012V404.47C237.848 401.497 240.258 399.087 243.232 399.087C246.205 399.087 248.615 401.497 248.615 404.47V406.009C248.615 403.035 251.026 400.625 253.999 400.625C256.972 400.625 259.382 403.035 259.382 406.009V410.623C259.382 407.65 261.793 405.24 264.766 405.24C267.739 405.24 270.15 407.65 270.15 410.623V432.341C270.15 447.105 258.442 459.076 244.001 459.076C229.559 459.076 217.852 447.105 217.852 432.338C217.852 425.238 222.783 410.836 227.198 404.422L227.081 405.593Z" fill="white"></path>
    <path d="M227.081 386.012V405.593L227.198 404.422C222.783 410.836 217.852 425.238 217.852 432.338C217.852 447.105 229.559 459.076 244.001 459.076C258.442 459.076 270.15 447.105 270.15 432.341V410.623C270.15 407.65 267.739 405.24 264.766 405.24C261.793 405.24 259.382 407.65 259.382 410.623V406.009M227.081 386.012C227.081 383.039 229.491 380.629 232.464 380.629C235.438 380.629 237.848 383.039 237.848 386.012M227.081 386.012L227.081 425.236M237.848 386.012V404.47M237.848 386.012L237.848 413.548M237.848 404.47C237.848 401.497 240.258 399.087 243.232 399.087C246.205 399.087 248.615 401.497 248.615 404.47M237.848 404.47L237.848 414.106M248.615 404.47V406.009M248.615 404.47V416.007M248.615 406.009C248.615 403.035 251.026 400.625 253.999 400.625C256.972 400.625 259.382 403.035 259.382 406.009M248.615 406.009V413.27M259.382 406.009V416.007" stroke="#262647" stroke-width="2.37719" stroke-linecap="round" stroke-linejoin="round"></path>
    <rect x="510.07" y="106.208" width="170.859" height="16.9709" rx="8.48544" fill="#E9E9ED"></rect>
    <rect x="510.07" y="106.208" width="128.472" height="16.9709" rx="8.48544" fill="#AEEAB4"></rect>
  </g>
  <defs>
    <clipPath id="clip0_5140_32565">
      <rect width="732" height="486" fill="white"></rect>
    </clipPath>
  </defs>
</svg>
