<?xml version="1.0" encoding="UTF-8"?>
<svg xmlns="http://www.w3.org/2000/svg" width="720" height="486" viewBox="0 0 720 486" fill="none">
  <g clip-path="url(#clip0_4540_24164)">
    <rect width="720" height="486" fill="#AEEAB4"></rect>
    <path d="M104 68.0812C104 62.5135 108.513 58 114.081 58H904.361C909.929 58 914.442 62.5135 914.442 68.0812V652.473H104V68.0812Z" fill="white"></path>
    <path d="M135.375 309.457H804.379V311.659H135.375V309.457Z" fill="#DADDE1"></path>
    <path d="M135.375 399.734H804.379V401.936H135.375V399.734Z" fill="#DADDE1"></path>
    <path d="M394.008 462.318H407.819V459.966H397.642V459.795L402.56 454.536C406.323 450.505 407.435 448.624 407.435 446.197C407.435 442.819 404.698 440.125 400.849 440.125C397.012 440.125 394.093 442.734 394.093 446.582H396.616C396.616 444.091 398.23 442.434 400.764 442.434C403.137 442.434 404.954 443.888 404.954 446.197C404.954 448.218 403.768 449.714 401.234 452.483L394.008 460.394V462.318Z" fill="#6861F2"></path>
    <path d="M420.017 439.398H417.708L410.652 465.61H412.961L420.017 439.398Z" fill="#6861F2"></path>
    <path d="M422.964 462.318H436.776V459.966H426.599V459.795L431.517 454.536C435.279 450.505 436.391 448.624 436.391 446.197C436.391 442.819 433.655 440.125 429.806 440.125C425.968 440.125 423.05 442.734 423.05 446.582H425.573C425.573 444.091 427.187 442.434 429.721 442.434C432.094 442.434 433.911 443.888 433.911 446.197C433.911 448.218 432.724 449.714 430.191 452.483L422.964 460.394V462.318Z" fill="#6861F2"></path>
    <path d="M321.758 464.91C321.758 455.633 328.354 439.398 335.893 439.398C343.432 439.398 339.034 453.314 337.464 457.952C335.893 462.591 334.323 471.868 345.317 459.26C346.626 457.605 350.029 453.314 351.599 453.314C354.74 453.314 351.958 461.048 351.173 464.91C349.602 470.897 364.164 457.952 364.164 457.952C366.258 456.406 371.546 454.705 375.944 460.272" stroke="#6861F2" stroke-width="2.20183" stroke-linecap="round" stroke-linejoin="round"></path>
    <rect x="168.227" y="430.371" width="120.846" height="45.1547" rx="22.5774" fill="#25A14F"></rect>
    <path d="M216.391 454.083L223.281 460.534C229.536 452.239 235.296 446.199 240.56 442.414" stroke="white" stroke-width="2.20183" stroke-linecap="round" stroke-linejoin="round"></path>
    <path d="M402.132 344.112H399.481L394.008 347.747V350.441L399.353 346.892H399.481V366.005H402.132V344.112Z" fill="#6861F2"></path>
    <path d="M416.211 343.086H413.902L406.847 369.298H409.156L416.211 343.086Z" fill="#6861F2"></path>
    <path d="M426.556 366.305C430.8 366.305 433.954 363.643 433.954 360.062C433.954 357.282 432.308 355.262 429.55 354.802V354.631C431.762 353.958 433.141 352.14 433.141 349.671C433.141 346.571 430.693 343.813 426.642 343.813C422.858 343.813 419.715 346.143 419.586 349.585H422.152C422.248 347.405 424.322 346.122 426.599 346.122C429.015 346.122 430.576 347.586 430.576 349.799C430.576 352.108 428.769 353.605 426.171 353.605H424.418V355.957H426.171C429.496 355.957 431.345 357.646 431.345 360.062C431.345 362.381 429.325 363.953 426.514 363.953C423.98 363.953 421.97 362.649 421.81 360.532H419.116C419.276 363.974 422.312 366.305 426.556 366.305Z" fill="#6861F2"></path>
    <path d="M321.758 368.598C321.758 359.321 328.354 343.086 335.893 343.086C343.432 343.086 339.034 357.001 337.464 361.64C335.893 366.278 334.323 375.555 345.317 362.948C346.626 361.293 350.029 357.001 351.599 357.001C354.74 357.001 351.958 364.736 351.173 368.598C349.602 374.585 364.164 361.64 364.164 361.64C366.258 360.094 371.546 358.393 375.944 363.959" stroke="#6861F2" stroke-width="2.20183" stroke-linecap="round" stroke-linejoin="round"></path>
    <rect x="168.234" y="334.055" width="120.846" height="45.1547" rx="22.5774" fill="#A2B3AC"></rect>
    <path d="M204.355 368.609C204.355 359.332 210.952 343.098 218.491 343.098C226.03 343.098 221.632 357.013 220.061 361.652C218.491 366.29 216.92 375.567 227.914 362.959C229.223 361.304 232.626 357.013 234.197 357.013C237.338 357.013 234.556 364.747 233.771 368.609C232.2 374.596 246.762 361.652 246.762 361.652C248.856 360.105 254.144 358.405 258.541 363.971" stroke="white" stroke-width="2.20183" stroke-linecap="round" stroke-linejoin="round"></path>
    <path fill-rule="evenodd" clip-rule="evenodd" d="M523.878 158.297V236.297C523.878 239.837 521.19 242.706 517.873 242.706H439.81C436.493 242.706 433.805 239.837 433.805 236.297V135.023C433.805 131.483 436.493 128.613 439.81 128.613H496.219C497.819 128.613 499.353 129.295 500.48 130.506L522.134 153.78C523.251 154.981 523.878 156.605 523.878 158.297Z" fill="#9C99F5" stroke="#9C99F5" stroke-width="2.20183" stroke-linejoin="round"></path>
    <path fill-rule="evenodd" clip-rule="evenodd" d="M497.453 129.883V150.394C497.453 153.934 500.142 156.804 503.458 156.804H522.658" fill="#9C99F5"></path>
    <path d="M497.453 129.883V150.394C497.453 153.934 500.142 156.804 503.458 156.804H522.658" stroke="white" stroke-width="2.20183" stroke-linecap="round" stroke-linejoin="round"></path>
    <rect width="64.6591" height="64.6591" transform="translate(447.664 158.637)" fill="#9C99F5"></rect>
    <path d="M460.597 205.516C455.241 205.516 450.898 201.173 450.898 195.817C450.898 190.46 455.241 186.118 460.597 186.118C461.169 186.118 461.729 186.167 462.274 186.262C463.022 177.131 470.67 169.953 479.995 169.953C486.907 169.953 492.897 173.896 495.839 179.656C495.946 179.653 496.053 179.652 496.16 179.652C503.302 179.652 509.092 185.442 509.092 192.584C509.092 199.726 503.302 205.516 496.16 205.516C483.798 205.516 471.47 205.516 460.597 205.516Z" fill="white"></path>
    <path d="M475.955 188.542H471.615C471.112 188.542 470.85 187.943 471.191 187.573L479.147 178.954C479.605 178.459 480.387 178.459 480.844 178.954L488.8 187.573C489.142 187.943 488.879 188.542 488.376 188.542H484.037V197.895C484.037 198.532 483.52 199.049 482.882 199.049H477.109C476.471 199.049 475.955 198.532 475.955 197.895V188.542Z" fill="#9C99F5"></path>
    <path d="M390.997 235.169V156.964C390.997 155.268 390.368 153.64 389.248 152.436L367.538 129.101C366.407 127.886 364.87 127.203 363.266 127.203H306.708C303.383 127.203 300.688 130.08 300.688 133.63V235.169C300.688 238.718 303.383 241.595 306.708 241.595H384.976C388.301 241.595 390.997 238.718 390.997 235.169Z" stroke="#51516C" stroke-width="2.20183" stroke-linecap="round" stroke-linejoin="round"></path>
    <path d="M364.531 128.484V149.049C364.531 152.599 367.227 155.476 370.552 155.476H389.802" stroke="#51516C" stroke-width="2.20183" stroke-linecap="round" stroke-linejoin="round"></path>
    <path d="M346.02 169.355V199.459" stroke="#51516C" stroke-width="2.20183" stroke-linecap="round" stroke-linejoin="round"></path>
    <path d="M361.078 184.414H330.975" stroke="#51516C" stroke-width="2.20183" stroke-linecap="round" stroke-linejoin="round"></path>
    <path d="M237.472 184.405V214.508H204.359M237.472 184.405V172.363H186.297V184.405M237.472 184.405H204.359M186.297 184.405V214.508H204.359M186.297 184.405H204.359M204.359 184.405V214.508" stroke="#51516C" stroke-width="2.20183" stroke-linecap="round" stroke-linejoin="round"></path>
    <path fill-rule="evenodd" clip-rule="evenodd" d="M258.544 156.964V235.169C258.544 238.718 255.848 241.595 252.523 241.595H174.255C170.93 241.595 168.234 238.718 168.234 235.169V133.63C168.234 130.08 170.93 127.203 174.255 127.203H230.813C232.417 127.203 233.954 127.886 235.085 129.101L256.795 152.436C257.915 153.64 258.544 155.268 258.544 156.964Z" stroke="#51516C" stroke-width="2.20183" stroke-linejoin="round"></path>
    <path d="M232.027 128.484V149.049C232.027 152.599 234.723 155.476 238.048 155.476H257.298" stroke="#51516C" stroke-width="2.20183" stroke-linecap="round" stroke-linejoin="round"></path>
  </g>
  <defs>
    <clipPath id="clip0_4540_24164">
      <rect width="720" height="486" fill="white"></rect>
    </clipPath>
  </defs>
</svg>
