<?xml version="1.0" encoding="UTF-8"?>
<svg xmlns="http://www.w3.org/2000/svg" xmlns:xlink="http://www.w3.org/1999/xlink" width="81px" height="50px" viewBox="0 0 81 50" version="1.1">
  <title>visa</title>
  <desc>Created with Sketch.</desc>
  <g id="Pricing-tiles" stroke="none" stroke-width="1" fill="none" fill-rule="evenodd">
    <g id="TEST_-Pricing-page-(Desktop-HD)" transform="translate(-676.000000, -3856.000000)">
      <g id="Group-4" transform="translate(0.000000, 3560.000000)">
        <g id="Group">
          <g id="visa" transform="translate(676.000000, 296.000000)">
            <path d="M81,47 C81,48.6087853 79.5794683,50 78,50 L3,50 C1.41942718,50 5.55111512e-17,48.6089481 5.55111512e-17,47 L5.55111512e-17,3 C5.55111512e-17,1.39128301 1.41919388,-2.77555756e-17 3,-2.77555756e-17 L78,-2.77555756e-17 C79.5797017,-2.77555756e-17 81,1.39144586 81,3 L81,47 Z" id="Fill-1" fill="#FFFFFF" fill-rule="nonzero"></path>
            <polygon id="Fill-4" fill="#747678" points="38.1914188 32.1066052 34.2435834 32.1066052 36.7113832 17.1341552 40.6592186 17.1341552"></polygon>
            <path d="M30.9224918,17.1343461 L27.1582916,27.4321599 L26.7130567,25.2150795 L26.7130567,25.2157156 L25.385084,18.4824073 C25.385084,18.4824073 25.2240005,17.1343461 23.512649,17.1343461 L17.2896696,17.1343461 L17.2175042,17.3881811 C17.2175042,17.3881811 19.1208673,17.7781583 21.3470419,19.0995 L24.7761883,32.1067961 L28.8902619,32.1067961 L35.1725199,17.1343461 L30.9224918,17.1343461 Z" id="Fill-6" fill="#747678"></path>
            <path d="M57.6322046,26.8109321 L59.7063163,21.2068398 L60.8738498,26.8109321 L57.6322046,26.8109321 Z M61.9763055,32.106478 L65.6006852,32.106478 L62.4408705,17.134028 L59.2668804,17.134028 C57.8010202,17.134028 57.4434147,18.2498843 57.4434147,18.2498843 L51.5561335,32.106478 L55.6714958,32.106478 L56.4930218,29.8830358 L61.5130293,29.8830358 L61.9763055,32.106478 Z" id="Fill-8" fill="#747678"></path>
            <path d="M51.8646407,20.7346048 L52.4271444,17.519361 C52.4271444,17.519361 50.6893752,16.8666424 48.8768632,16.8666424 C46.917443,16.8666424 42.2653504,17.7127592 42.2653504,21.8231054 C42.2653504,25.691704 47.7267267,25.7400536 47.7267267,27.7707339 C47.7267267,29.8014141 42.8278541,29.4387927 41.211864,28.1575301 L40.6242313,31.5184586 C40.6242313,31.5184586 42.3871295,32.3645754 45.0804463,32.3645754 C47.7744074,32.3645754 51.8395117,30.9866138 51.8395117,27.238889 C51.8395117,23.3461156 46.3298103,22.982858 46.3298103,21.2912606 C46.3298103,19.5977547 50.1758409,19.8153276 51.8646407,20.7346048" id="Fill-10" fill="#747678"></path>
            <path d="M26.7129279,25.2155248 L25.3849552,18.4828527 C25.3849552,18.4828527 25.2238716,17.1341552 23.5125201,17.1341552 L17.2895408,17.1341552 L17.2180197,17.3879903 C17.2180197,17.3879903 20.2077302,17.9999935 23.0756615,20.292143 C25.8179477,22.4844125 26.7129279,25.2155248 26.7129279,25.2155248" id="Fill-12" fill="#CBCCCD"></path>
          </g>
        </g>
      </g>
    </g>
  </g>
</svg>
