<?xml version="1.0" encoding="UTF-8"?>
<svg xmlns="http://www.w3.org/2000/svg" width="720" height="486" viewBox="0 0 720 486" fill="none">
  <g clip-path="url(#clip0_4540_24081)">
    <rect width="720" height="486" fill="#AEEAB4"></rect>
    <path d="M-39.0078 80.1229C-39.0078 66.5133 -27.975 55.4805 -14.3654 55.4805H606.316C619.926 55.4805 630.959 66.5132 630.959 80.1228V581.368H-14.3655C-27.9751 581.368 -39.0078 570.335 -39.0078 556.726V80.1229Z" fill="white"></path>
    <path d="M461.191 183.673V204.63H458.653V186.334H458.53L453.414 189.731V187.152L458.653 183.673H461.191Z" fill="#51516C"></path>
    <path d="M467.218 204.63V202.788L474.136 195.216C474.947 194.329 475.616 193.558 476.141 192.903C476.667 192.242 477.055 191.621 477.308 191.041C477.567 190.454 477.697 189.84 477.697 189.199C477.697 188.462 477.519 187.824 477.165 187.285C476.817 186.747 476.339 186.33 475.732 186.037C475.125 185.744 474.443 185.597 473.685 185.597C472.88 185.597 472.178 185.764 471.577 186.098C470.984 186.426 470.523 186.886 470.196 187.48C469.875 188.073 469.715 188.769 469.715 189.567H467.3C467.3 188.339 467.583 187.262 468.149 186.334C468.716 185.406 469.486 184.683 470.462 184.164C471.444 183.646 472.546 183.387 473.767 183.387C474.995 183.387 476.083 183.646 477.032 184.164C477.98 184.683 478.723 185.382 479.262 186.262C479.801 187.142 480.071 188.121 480.071 189.199C480.071 189.97 479.931 190.724 479.651 191.46C479.378 192.19 478.901 193.006 478.219 193.906C477.543 194.8 476.605 195.891 475.404 197.181L470.697 202.215V202.379H480.439V204.63H467.218Z" fill="#51516C"></path>
    <path d="M483.724 200.332V198.245L492.933 183.673H494.448V186.907H493.425L486.466 197.917V198.081H498.868V200.332H483.724ZM493.588 204.63V183.673H496.003V204.63H493.588Z" fill="#51516C"></path>
    <rect x="-38.5117" y="252.734" width="670.272" height="116.658" fill="#F6F7F8"></rect>
    <path d="M466.645 315.047V312.96L475.854 298.388H477.369V301.622H476.345L469.387 312.632V312.796H481.789V315.047H466.645ZM476.509 319.345V298.388H478.924V319.345H476.509Z" fill="#51516C"></path>
    <path d="M492.705 319.632C491.354 319.632 490.15 319.4 489.093 318.936C488.042 318.472 487.207 317.827 486.586 317.002C485.972 316.169 485.638 315.204 485.583 314.106H488.162C488.216 314.781 488.448 315.364 488.858 315.856C489.267 316.34 489.802 316.715 490.464 316.981C491.126 317.247 491.859 317.38 492.664 317.38C493.565 317.38 494.363 317.223 495.059 316.91C495.754 316.596 496.3 316.159 496.696 315.6C497.092 315.04 497.289 314.392 497.289 313.656C497.289 312.885 497.098 312.206 496.716 311.619C496.334 311.026 495.775 310.562 495.038 310.228C494.301 309.893 493.401 309.726 492.337 309.726H490.659V307.475H492.337C493.169 307.475 493.899 307.325 494.527 307.025C495.161 306.724 495.656 306.302 496.01 305.756C496.372 305.21 496.553 304.569 496.553 303.832C496.553 303.122 496.396 302.505 496.082 301.98C495.768 301.455 495.325 301.045 494.752 300.752C494.185 300.459 493.517 300.312 492.746 300.312C492.023 300.312 491.341 300.445 490.699 300.711C490.065 300.97 489.547 301.349 489.144 301.847C488.742 302.338 488.523 302.931 488.489 303.627H486.033C486.074 302.529 486.405 301.567 487.026 300.742C487.647 299.909 488.458 299.261 489.461 298.797C490.471 298.334 491.579 298.102 492.787 298.102C494.083 298.102 495.195 298.364 496.123 298.889C497.051 299.408 497.764 300.094 498.262 300.946C498.76 301.799 499.009 302.72 499.009 303.709C499.009 304.889 498.698 305.896 498.077 306.728C497.463 307.56 496.628 308.137 495.57 308.457V308.621C496.894 308.839 497.927 309.402 498.671 310.309C499.414 311.21 499.786 312.325 499.786 313.656C499.786 314.795 499.476 315.818 498.855 316.725C498.241 317.626 497.402 318.335 496.338 318.854C495.274 319.372 494.063 319.632 492.705 319.632Z" fill="#51516C"></path>
    <path d="M475.36 440.96C474.159 440.96 473.078 440.721 472.116 440.243C471.154 439.766 470.383 439.111 469.803 438.279C469.223 437.446 468.906 436.498 468.852 435.434H471.307C471.403 436.382 471.833 437.167 472.597 437.787C473.368 438.401 474.289 438.708 475.36 438.708C476.219 438.708 476.983 438.507 477.652 438.105C478.327 437.702 478.856 437.15 479.238 436.447C479.627 435.737 479.821 434.936 479.821 434.042C479.821 433.128 479.62 432.313 479.217 431.597C478.822 430.873 478.276 430.304 477.58 429.888C476.884 429.472 476.09 429.26 475.196 429.253C474.555 429.246 473.896 429.345 473.221 429.55C472.546 429.748 471.99 430.004 471.553 430.317L469.179 430.031L470.448 419.716H481.336V421.967H472.576L471.84 428.148H471.962C472.392 427.807 472.931 427.524 473.579 427.299C474.227 427.074 474.903 426.961 475.605 426.961C476.888 426.961 478.03 427.268 479.033 427.882C480.043 428.489 480.834 429.321 481.407 430.379C481.987 431.436 482.277 432.644 482.277 434.001C482.277 435.338 481.977 436.532 481.377 437.583C480.783 438.627 479.964 439.452 478.921 440.059C477.877 440.659 476.69 440.96 475.36 440.96Z" fill="#51516C"></path>
    <path d="M493.3 440.96C492.441 440.946 491.581 440.782 490.722 440.468C489.862 440.155 489.078 439.626 488.368 438.882C487.659 438.132 487.089 437.119 486.659 435.843C486.23 434.561 486.015 432.951 486.015 431.013C486.015 429.158 486.189 427.514 486.537 426.081C486.884 424.642 487.389 423.431 488.051 422.448C488.713 421.459 489.511 420.709 490.445 420.197C491.387 419.686 492.448 419.43 493.628 419.43C494.801 419.43 495.845 419.665 496.759 420.136C497.68 420.6 498.431 421.248 499.01 422.08C499.59 422.912 499.965 423.871 500.136 424.955H497.639C497.407 424.014 496.957 423.233 496.288 422.612C495.62 421.991 494.733 421.681 493.628 421.681C492.004 421.681 490.725 422.387 489.791 423.799C488.863 425.211 488.395 427.193 488.389 429.744H488.552C488.934 429.165 489.388 428.67 489.913 428.261C490.445 427.845 491.032 427.524 491.673 427.299C492.315 427.074 492.993 426.961 493.71 426.961C494.91 426.961 496.009 427.261 497.005 427.862C498.001 428.455 498.799 429.277 499.399 430.328C500 431.371 500.3 432.569 500.3 433.919C500.3 435.216 500.01 436.403 499.43 437.48C498.85 438.552 498.035 439.404 496.984 440.039C495.941 440.666 494.713 440.973 493.3 440.96ZM493.3 438.708C494.16 438.708 494.931 438.494 495.613 438.064C496.302 437.634 496.844 437.058 497.24 436.334C497.643 435.611 497.844 434.806 497.844 433.919C497.844 433.053 497.649 432.265 497.261 431.556C496.879 430.839 496.35 430.27 495.674 429.847C495.006 429.424 494.242 429.212 493.382 429.212C492.734 429.212 492.13 429.342 491.571 429.601C491.012 429.854 490.521 430.201 490.098 430.645C489.681 431.088 489.354 431.597 489.115 432.17C488.876 432.736 488.757 433.333 488.757 433.96C488.757 434.793 488.951 435.57 489.34 436.293C489.736 437.017 490.275 437.6 490.957 438.043C491.646 438.487 492.427 438.708 493.3 438.708Z" fill="#51516C"></path>
    <path d="M-38.5117 127.75H631.761V129.956H-38.5117V127.75Z" fill="#DADDE1"></path>
    <rect x="35.2969" y="152.504" width="81.6609" height="81.6609" fill="#017737"></rect>
    <path d="M82.4373 221.244C82.4267 223.325 80.7015 225.009 78.5702 225.019C76.4345 225.019 74.7031 223.329 74.7031 221.244L74.7031 162.859" stroke="white" stroke-width="2.40131" stroke-linecap="round" stroke-linejoin="round"></path>
    <path d="M46.0625 187.212C50.3371 175.511 61.549 167.16 74.7074 167.16C87.8659 167.16 99.0777 175.511 103.352 187.212H46.0625Z" fill="white"></path>
    <g clip-path="url(#clip1_4540_24081)">
      <rect x="34.332" y="269.422" width="81.6647" height="81.6647" fill="#CFD0F9"></rect>
      <rect x="62.8438" y="614.34" width="292.331" height="26.5755" transform="rotate(-90 62.8438 614.34)" fill="#827DF4"></rect>
      <path d="M62.8438 322.004L75.6729 275.819C75.802 275.354 76.461 275.354 76.5901 275.819L89.4193 322.004L62.8438 322.004Z" fill="#262647"></path>
      <path d="M62.8438 322.004L69.4876 298.086L82.7754 298.086L89.4193 322.004L62.8438 322.004Z" fill="white"></path>
      <path d="M70.8203 335.299L70.8203 601.055" stroke="#262647" stroke-width="1.20066" stroke-linecap="round"></path>
      <path d="M81.4453 335.299L81.4453 601.055" stroke="#262647" stroke-width="1.20066" stroke-linecap="round"></path>
    </g>
    <rect x="35.9141" y="388.543" width="81.6609" height="81.6609" fill="#3DBC62"></rect>
    <path d="M48.7272 440.934L50.4447 435.661H58.7948L60.5123 440.934H65.7551L57.7779 417.812H51.4729L43.4844 440.934H48.7272ZM51.6876 431.845L54.535 423.096H54.7158L57.5632 431.845H51.6876Z" fill="white"></path>
    <path d="M68.5404 440.934H78.4272C83.6248 440.934 86.3931 438.224 86.3931 434.544C86.3931 431.123 83.9412 429.057 81.3085 428.933V428.707C83.7152 428.165 85.4892 426.46 85.4892 423.739C85.4892 420.273 82.9129 417.812 77.8057 417.812H68.5404V440.934ZM73.4329 436.937V430.795H77.5345C79.8848 430.795 81.3424 432.15 81.3424 434.058C81.3424 435.797 80.1559 436.937 77.4215 436.937H73.4329ZM73.4329 427.487V421.764H77.1504C79.3198 421.764 80.5514 422.881 80.5514 424.552C80.5514 426.381 79.0599 427.487 77.06 427.487H73.4329Z" fill="white"></path>
    <path d="M109.994 425.907C109.35 420.567 105.305 417.496 99.9493 417.496C93.8365 417.496 89.1699 421.809 89.1699 429.373C89.1699 436.914 93.7574 441.25 99.9493 441.25C105.881 441.25 109.463 437.31 109.994 433.053L105.045 433.031C104.582 435.503 102.639 436.926 100.028 436.926C96.5144 436.926 94.1302 434.318 94.1302 429.373C94.1302 424.563 96.4805 421.82 100.062 421.82C102.74 421.82 104.672 423.367 105.045 425.907H109.994Z" fill="white"></path>
    <path d="M542.342 173.146C537.505 173.146 533.585 177.067 533.585 181.903C533.585 186.74 537.505 190.66 542.342 190.66C547.178 190.66 551.099 186.74 551.099 181.903C551.099 177.067 547.178 173.146 542.342 173.146ZM542.342 192.85C533.18 192.85 525.614 199.67 524.439 208.51C524.129 210.839 526.064 212.553 528.112 212.553H556.572C558.62 212.553 560.554 210.839 560.245 208.51C559.07 199.67 551.504 192.85 542.342 192.85Z" fill="#827DF4"></path>
    <path d="M542.342 286.736C537.505 286.736 533.585 290.657 533.585 295.493C533.585 300.33 537.505 304.25 542.342 304.25C547.178 304.25 551.099 300.33 551.099 295.493C551.099 290.657 547.178 286.736 542.342 286.736ZM542.342 306.439C533.18 306.439 525.614 313.259 524.439 322.1C524.129 324.429 526.064 326.142 528.112 326.142H556.572C558.62 326.142 560.554 324.429 560.245 322.1C559.07 313.259 551.504 306.439 542.342 306.439Z" fill="#827DF4"></path>
    <path d="M542.342 406.889C537.505 406.889 533.585 410.809 533.585 415.646C533.585 420.482 537.505 424.402 542.342 424.402C547.178 424.402 551.099 420.482 551.099 415.646C551.099 410.809 547.178 406.889 542.342 406.889ZM542.342 426.592C533.18 426.592 525.614 433.412 524.439 442.253C524.129 444.581 526.064 446.295 528.112 446.295H556.572C558.62 446.295 560.554 444.581 560.245 442.253C559.07 433.412 551.504 426.592 542.342 426.592Z" fill="#827DF4"></path>
    <path d="M157.75 194.407C157.75 190.752 160.713 187.789 164.368 187.789H332.374C336.029 187.789 338.992 190.752 338.992 194.407C338.992 198.062 336.029 201.025 332.374 201.025H164.368C160.713 201.025 157.75 198.062 157.75 194.407Z" fill="#D0D7D3"></path>
    <path d="M157.75 309.134C157.75 305.479 160.713 302.516 164.368 302.516H315.387C319.042 302.516 322.005 305.479 322.005 309.134C322.005 312.789 319.042 315.752 315.387 315.752H164.368C160.713 315.752 157.75 312.789 157.75 309.134Z" fill="#D0D7D3"></path>
    <path d="M157.75 428.255C157.75 424.6 160.713 421.637 164.368 421.637H295.776C299.432 421.637 302.394 424.6 302.394 428.255C302.394 431.91 299.431 434.873 295.776 434.873H164.368C160.713 434.873 157.75 431.91 157.75 428.255Z" fill="#D0D7D3"></path>
  </g>
  <defs>
    <clipPath id="clip0_4540_24081">
      <rect width="720" height="486" fill="white"></rect>
    </clipPath>
    <clipPath id="clip1_4540_24081">
      <rect x="34.332" y="269.422" width="81.6647" height="81.6647" fill="white"></rect>
    </clipPath>
  </defs>
</svg>
